<?xml version="1.0" encoding="utf-8"?>
<!-- Generator: Adobe Illustrator 22.0.1, SVG Export Plug-In . SVG Version: 6.00 Build 0)  -->
<svg version="1.1" id="logo" xmlns="http://www.w3.org/2000/svg" xmlns:xlink="http://www.w3.org/1999/xlink" x="0px" y="0px"
	 viewBox="0 0 1024 1024" style="enable-background:new 0 0 1024 1024;" xml:space="preserve">
<style type="text/css">
	.st0{fill:#151515;}
	.st1{fill:none;}
	.st2{fill:#2B2B2B;}
	.st3{fill:#5C5C5C;}
	.st4{fill:#FFFFFF;}
</style>
<circle class="st0" cx="512" cy="512" r="512"/>
<g>
	<path class="st1" d="M634.8,1003.6c-46-46-81.8-53.6-123.2-62.4c-43-9.1-91.6-19.5-148.1-75.9c-56.5-56.5-66.8-105.2-75.9-148.1
		c-8.8-41.4-16.4-77.2-62.4-123.2c-46-46-81.7-53.6-123.2-62.4c-30.7-6.5-64.4-13.7-101.7-37.8C0.1,499.8,0,505.9,0,512
		c0,23.4,1.6,46.5,4.6,69c2.6,0.6,5.2,1.1,7.8,1.7c43,9.1,91.7,19.5,148.1,75.9c56.4,56.4,66.8,105.2,75.9,148.1
		c8.8,41.4,16.4,77.2,62.4,123.2c46,46,81.7,53.6,123.2,62.4c27.9,5.9,58.3,12.4,91.6,31.7c43.3-0.1,85.4-5.6,125.5-15.9
		C637.7,1006.6,636.3,1005.1,634.8,1003.6z"/>
	<path class="st1" d="M260.5,558.6c56.4,56.4,66.8,105.2,75.9,148.1c8.8,41.4,16.4,77.2,62.4,123.2c46,45.9,81.8,53.5,123.2,62.3
		c43,9.1,91.7,19.5,148.1,76c8,8,15,15.8,21.3,23.5c28.4-10.6,55.7-23.7,81.4-39c-8.6-15.5-20.5-31.5-38.1-49.1
		c-46-46-81.8-53.6-123.2-62.4c-43-9.1-91.6-19.5-148.1-75.9c-56.5-56.5-66.8-105.2-75.9-148.1c-8.8-41.4-16.4-77.2-62.4-123.2
		c-46-46-81.7-53.6-123.2-62.4c-43-9.1-91.7-19.5-148.1-75.9c-8-8-15.1-15.9-21.4-23.6c-12.4,33-21.5,67.6-26.8,103.4
		C44,468.2,76,475,112.4,482.7C155.4,491.8,204.1,502.2,260.5,558.6z"/>
	<path class="st1" d="M125.2,694C84,652.8,51,642.4,14.7,634.3c11.4,46.4,29.1,90.3,52.1,130.8c23.7,25,38.5,48.5,48.5,70.6
		c38.1,46.7,84.4,86.5,136.5,117.3c-46.3-51.3-55.9-96.1-64.3-136C178.7,775.7,171.1,739.9,125.2,694z"/>
	<path class="st1" d="M212.4,382.7c43,9.1,91.7,19.5,148.1,75.9c56.4,56.4,66.8,105.2,75.9,148.1c8.8,41.4,16.4,77.2,62.4,123.2
		c46,45.9,81.8,53.5,123.2,62.3c43,9.1,91.7,19.5,148.1,76c19.9,19.9,34,38.8,44.4,56.8c23.5-17.2,45.5-36.4,65.7-57.4
		c-8.7-20.1-22.2-40.8-45.5-64.1c-46-46-81.8-53.6-123.2-62.4c-43-9.1-91.6-19.5-148.1-75.9c-56.5-56.5-66.8-105.2-75.9-148.1
		c-8.8-41.4-16.4-77.2-62.4-123.2c-46-46-81.7-53.6-123.2-62.4c-43-9.1-91.7-19.5-148.1-75.9c-20.6-20.6-35-40.1-45.5-58.7
		c-20,25.6-37.6,53.1-52.5,82.3c8.1,13,18.8,26.5,33.4,41.1C135.2,366.3,171,373.9,212.4,382.7z"/>
	<path class="st1" d="M898.8,329.9c41.2,41.1,74.2,51.5,110.4,59.6c-11.4-46.4-29.1-90.4-52.2-130.9c-23.6-24.9-38.3-48.2-48.2-70.3
		c-38.1-46.7-84.3-86.5-136.4-117.4c46.2,51.2,55.7,95.9,64.2,135.7C845.3,248.2,852.9,284,898.8,329.9z"/>
	<path class="st1" d="M512.4,82.7c43,9.1,91.7,19.5,148.1,75.9c56.4,56.4,66.8,105.2,75.9,148.1c8.8,41.4,16.4,77.2,62.4,123.2
		c46,45.9,81.8,53.5,123.2,62.3c30.7,6.5,64.4,13.7,101.7,37.9c0.2-6,0.3-12.1,0.3-18.1c0-23.5-1.6-46.6-4.6-69.2
		c-2.6-0.6-5.2-1.1-7.8-1.7c-43-9.1-91.6-19.5-148.1-75.9c-56.5-56.5-66.8-105.2-75.9-148.1c-8.8-41.4-16.4-77.2-62.4-123.2
		c-46-46-81.8-53.6-123.2-62.4c-27.9-5.9-58.1-12.4-91.4-31.5c-43.4,0.1-85.5,5.6-125.7,15.9c1.4,1.5,2.8,2.9,4.3,4.4
		C435.2,66.3,471,73.9,512.4,82.7z"/>
	<path class="st1" d="M412.4,182.7c43,9.1,91.7,19.5,148.1,75.9c56.4,56.4,66.8,105.2,75.9,148.1c8.8,41.4,16.4,77.2,62.4,123.2
		c46,45.9,81.8,53.5,123.2,62.3c43,9.1,91.7,19.5,148.1,76c8,8,15.1,15.9,21.4,23.6c12.4-33,21.5-67.6,26.8-103.5
		c-38.4-32.6-70.4-39.5-106.8-47.2c-43-9.1-91.6-19.5-148.1-75.9c-56.5-56.5-66.8-105.2-75.9-148.1c-8.8-41.4-16.4-77.2-62.4-123.2
		c-46-46-81.7-53.6-123.2-62.4c-43-9.1-91.7-19.5-148.1-75.9c-7.9-7.9-15-15.7-21.2-23.4c-28.4,10.6-55.7,23.7-81.5,39
		c8.6,15.4,20.5,31.5,38,49C335.2,166.3,371,173.9,412.4,182.7z"/>
	<path class="st1" d="M312.4,282.7c43,9.1,91.7,19.5,148.1,75.9c56.4,56.4,66.8,105.2,75.9,148.1c8.8,41.4,16.4,77.2,62.4,123.2
		c46,45.9,81.8,53.5,123.2,62.3c43,9.1,91.7,19.5,148.1,76c20.6,20.6,35,40.1,45.5,58.8c20-25.6,37.6-53.1,52.5-82.3
		c-8.1-13-18.8-26.6-33.4-41.1c-46-46-81.8-53.6-123.2-62.4c-43-9.1-91.6-19.5-148.1-75.9c-56.5-56.5-66.8-105.2-75.9-148.1
		c-8.8-41.4-16.4-77.2-62.4-123.2c-46-46-81.7-53.6-123.2-62.4c-43-9.1-91.7-19.5-148.1-75.9c-19.9-19.9-34-38.7-44.4-56.8
		c-23.5,17.2-45.5,36.4-65.7,57.4c8.7,20.1,22.2,40.8,45.5,64.1C235.2,266.3,271,273.9,312.4,282.7z"/>
	<path class="st2" d="M302,331.6c41.4,8.8,77.2,16.4,123.2,62.4c46,46,53.6,81.7,62.4,123.2c9.1,43,19.5,91.7,75.9,148.1
		c56.5,56.4,105.1,66.7,148.1,75.9c41.4,8.8,77.2,16.4,123.2,62.4c23.3,23.3,36.7,44,45.5,64.1c12.5-12.9,24.3-26.5,35.4-40.7
		c-10.5-18.6-24.9-38.2-45.5-58.8c-56.5-56.5-105.2-66.8-148.1-76c-41.4-8.8-77.2-16.4-123.2-62.3c-46-46-53.6-81.7-62.4-123.2
		c-9.1-43-19.5-91.7-75.9-148.1c-56.4-56.4-105.2-66.8-148.1-75.9c-41.4-8.8-77.2-16.4-123.2-62.4c-23.3-23.3-36.7-43.9-45.5-64.1
		c-12.5,12.9-24.3,26.5-35.4,40.7c10.5,18.6,24.9,38.1,45.5,58.7C210.3,312.1,259,322.5,302,331.6z"/>
	<path class="st2" d="M502,131.6c41.4,8.8,77.2,16.4,123.2,62.4c46,46,53.6,81.7,62.4,123.2c9.1,43,19.5,91.7,75.9,148.1
		c56.5,56.3,105.1,66.7,148.1,75.9c36.4,7.7,68.4,14.6,106.8,47.2c2.9-19.1,4.7-38.5,5.3-58.2c-37.3-24.2-71-31.3-101.7-37.9
		c-41.4-8.8-77.2-16.4-123.2-62.3c-46-46-53.6-81.7-62.4-123.2c-9.1-43-19.5-91.7-75.9-148.1c-56.4-56.4-105.2-66.8-148.1-75.9
		c-41.4-8.8-77.2-16.4-123.2-62.4c-1.5-1.5-2.9-3-4.3-4.4c-17.8,4.5-35.2,10-52.2,16.4c6.2,7.6,13.3,15.4,21.2,23.4
		C410.3,112.1,459,122.5,502,131.6z"/>
	<path class="st2" d="M725.2,94c46,46,53.6,81.7,62.4,123.2c9.1,43,19.5,91.7,75.9,148.1c56.5,56.3,105.1,66.7,148.1,75.9
		c2.6,0.6,5.2,1.1,7.8,1.7c-2.4-18.1-5.8-35.9-10.1-53.3C973,381.4,940,371,898.8,329.9c-46-46-53.6-81.7-62.4-123.2
		c-8.5-39.8-18-84.5-64.2-135.7C696,25.9,607,0,512,0c-0.5,0-0.9,0-1.4,0c33.2,19.2,63.5,25.6,91.4,31.5
		C643.4,40.4,679.2,48,725.2,94z"/>
	<path class="st2" d="M908.8,188.4c9.9,22,24.7,45.4,48.2,70.3C942.9,233.8,926.7,210.3,908.8,188.4z"/>
	<path class="st2" d="M402,231.6c41.4,8.8,77.2,16.4,123.2,62.4c46,46,53.6,81.7,62.4,123.2c9.1,43,19.5,91.7,75.9,148.1
		c56.5,56.4,105.1,66.7,148.1,75.9c41.4,8.8,77.2,16.4,123.2,62.4c14.6,14.6,25.3,28.1,33.4,41.1c8.7-17.1,16.5-34.8,23.4-52.9
		c-6.3-7.7-13.4-15.6-21.4-23.6c-56.5-56.5-105.2-66.8-148.1-76c-41.4-8.8-77.2-16.4-123.2-62.3c-46-46-53.6-81.7-62.4-123.2
		c-9.1-43-19.5-91.7-75.9-148.1c-56.4-56.4-105.1-66.8-148.1-75.9c-41.4-8.8-77.2-16.4-123.2-62.4c-17.5-17.5-29.5-33.6-38-49
		c-14.4,8.5-28.3,17.7-41.7,27.6c10.4,18,24.5,36.9,44.4,56.8C310.3,212.1,359,222.5,402,231.6z"/>
	<path class="st2" d="M202,431.6c41.4,8.8,77.2,16.4,123.2,62.4c46,46,53.6,81.7,62.4,123.2c9.1,43,19.5,91.7,75.9,148.1
		c56.5,56.3,105.1,66.7,148.1,75.9c41.4,8.8,77.2,16.4,123.2,62.4c17.6,17.6,29.5,33.6,38.1,49.1c14.4-8.5,28.3-17.7,41.7-27.6
		c-10.4-18-24.6-37-44.4-56.8c-56.5-56.5-105.2-66.8-148.1-76c-41.4-8.8-77.2-16.4-123.2-62.3c-46-46-53.6-81.7-62.4-123.2
		c-9.1-43-19.5-91.7-75.9-148.1c-56.4-56.4-105.2-66.8-148.1-75.9c-41.4-8.8-77.2-16.4-123.2-62.4c-14.6-14.6-25.3-28.1-33.4-41.1
		c-8.7,17.1-16.5,34.7-23.4,52.9c6.3,7.7,13.4,15.6,21.4,23.6C110.3,412.1,159,422.5,202,431.6z"/>
	<path class="st2" d="M225.2,594c46,46,53.6,81.7,62.4,123.2c9.1,43,19.5,91.7,75.9,148.1c56.5,56.4,105.1,66.7,148.1,75.9
		c41.4,8.8,77.2,16.4,123.2,62.4c1.5,1.5,3,3,4.4,4.5c17.8-4.6,35.2-10,52.2-16.4c-6.3-7.7-13.3-15.5-21.3-23.5
		c-56.5-56.5-105.2-66.8-148.1-76c-41.4-8.8-77.2-16.4-123.2-62.3c-46-46-53.6-81.7-62.4-123.2c-9.1-43-19.5-91.7-75.9-148.1
		c-56.4-56.4-105.2-66.8-148.1-75.9C76,475,44,468.2,5.7,435.5c-2.9,19.1-4.7,38.5-5.4,58.2c37.3,24.2,71,31.3,101.7,37.8
		C143.4,540.4,179.2,548,225.2,594z"/>
	<path class="st2" d="M298.8,929.9c-46-46-53.6-81.7-62.4-123.2c-9.1-43-19.5-91.7-75.9-148.1c-56.4-56.4-105.2-66.8-148.1-75.9
		c-2.6-0.6-5.2-1.1-7.8-1.7c2.4,18.1,5.8,35.9,10.1,53.3C51,642.4,84,652.8,125.2,694c46,46,53.6,81.7,62.4,123.2
		c8.5,39.9,18,84.6,64.3,136c76.2,45,165.1,70.9,260.1,70.9c0.5,0,1.1,0,1.6,0c-33.3-19.3-63.7-25.8-91.6-31.7
		C380.6,983.5,344.8,975.9,298.8,929.9z"/>
	<path class="st2" d="M115.4,835.8c-10-22.1-24.8-45.6-48.5-70.6C81.1,790.1,97.3,813.7,115.4,835.8z"/>
</g>
<g>
	<path class="st1" d="M97.5,514.6c9.1-42.9,18.6-87.3,71.8-140.6c53.3-53.3,97.7-62.7,140.6-71.9c41.9-8.9,81.6-17.3,130.7-66.4
		c49.1-49.1,57.6-88.7,66.5-130.7c6.9-32.6,14.1-66.1,40.5-103.7C535.8,0.4,524,0,512,0c-28.9,0-57.3,2.4-84.9,7
		c-0.1,0.7-0.3,1.4-0.4,2.1c-9.1,42.9-18.6,87.3-71.9,140.6c-53.3,53.3-97.7,62.7-140.6,71.9c-41.9,8.9-81.6,17.3-130.7,66.4
		C34.4,337.2,26,376.8,17,418.7c-4,18.8-8.1,37.8-15.8,57.8C0.4,488.2,0,500.1,0,512c0,49.8,7.1,97.9,20.4,143.4
		c3.5-3.2,7-6.5,10.6-10.1C80.1,596.1,88.5,556.5,97.5,514.6z"/>
	<path class="st1" d="M726.6,309.1c-9.1,42.9-18.6,87.3-71.9,140.6c-53.3,53.3-97.7,62.7-140.6,71.9c-41.9,8.9-81.6,17.3-130.7,66.4
		c-49,49.1-57.5,88.7-66.4,130.7c-9.1,42.9-18.6,87.3-71.9,140.6c-21.6,21.6-41.7,35.9-60.8,46c33.5,27.9,70.5,51.6,110.4,70.3
		c11.6-8,23.6-17.9,36.2-30.5c49.1-49.1,57.6-88.7,66.5-130.7c9.1-42.9,18.6-87.3,71.8-140.6c53.3-53.3,97.7-62.7,140.6-71.9
		c41.9-8.9,81.6-17.3,130.7-66.4c49.1-49.1,57.5-88.7,66.4-130.7c9.1-42.9,18.6-87.3,71.9-140.6c19.3-19.3,37.5-32.9,54.8-42.8
		c-22.5-32.6-48.7-62.5-77.9-89c-19.7,9.4-40.2,23.3-62.8,45.9C743.9,227.6,735.5,267.2,726.6,309.1z"/>
	<path class="st1" d="M209.9,202.1c41.9-8.9,81.6-17.3,130.7-66.4c46.7-46.7,56.6-84.9,65.2-124.6C244.9,45,111.9,154.4,45.5,300.6
		c6.8-8.7,14.6-17.5,23.7-26.7C122.6,220.6,167,211.2,209.9,202.1z"/>
	<path class="st1" d="M297.5,714.6c9.1-42.9,18.6-87.3,71.8-140.6c53.3-53.3,97.7-62.7,140.6-71.9c41.9-8.9,81.6-17.3,130.7-66.4
		c49.1-49.1,57.5-88.7,66.4-130.7c9.1-42.9,18.6-87.3,71.9-140.6c21.5-21.5,41.5-35.8,60.6-45.9C806,90.6,769,66.9,729.1,48.2
		c-11.5,7.9-23.4,17.8-36,30.4c-49.1,49.1-57.5,88.7-66.4,130.7c-9.1,42.9-18.6,87.3-71.9,140.6s-97.7,62.7-140.6,71.9
		c-41.9,8.9-81.6,17.3-130.7,66.4c-49.1,49.1-57.6,88.7-66.5,130.6c-9.2,42.9-18.6,87.3-71.9,140.6c-19.4,19.4-37.6,33-55,42.8
		c22.5,32.6,48.6,62.5,77.9,89c19.8-9.4,40.4-23.4,63-46C280.1,796.1,288.5,756.5,297.5,714.6z"/>
	<path class="st1" d="M826.6,409.1c-9.1,42.9-18.6,87.3-71.9,140.6c-53.3,53.3-97.7,62.7-140.6,71.9c-41.9,8.9-81.6,17.3-130.7,66.4
		c-49,49.1-57.5,88.7-66.4,130.7c-9.1,42.9-18.6,87.3-71.9,140.6c-10,10-19.8,18.5-29.2,25.7c43,17.9,89,30,137,35.5
		c30.1-38.2,37.1-71.4,44.5-106.1c9.1-42.9,18.6-87.3,71.8-140.6c53.3-53.3,97.7-62.7,140.6-71.9c41.9-8.9,81.6-17.3,130.7-66.4
		S898.1,546.9,907,505c9.1-42.9,18.6-87.3,71.9-140.6c6.2-6.2,12.2-11.7,18.1-16.8c-13.1-38.7-30.7-75.3-52.3-109.3
		c-16.3,9.1-33.4,21.8-51.7,40.2C843.9,327.6,835.5,367.2,826.6,409.1z"/>
	<path class="st1" d="M197.5,614.6c9.2-42.9,18.6-87.3,71.9-140.6c53.3-53.3,97.7-62.7,140.6-71.9c41.9-8.9,81.6-17.3,130.7-66.4
		c49.1-49.1,57.5-88.7,66.4-130.7c9.1-42.9,18.6-87.3,71.9-140.6c10-10,19.6-18.4,29-25.6C664.9,21,618.9,8.8,570.9,3.3
		C541,41.5,534,74.5,526.6,109.1c-9.1,42.9-18.6,87.3-71.9,140.6c-53.3,53.3-97.7,62.7-140.6,71.9c-41.9,8.9-81.6,17.3-130.7,66.4
		c-49,49.1-57.5,88.7-66.4,130.7c-9.1,42.9-18.6,87.3-71.9,140.6c-6.2,6.2-12.3,11.8-18.2,16.9c13.1,38.7,30.7,75.3,52.2,109.3
		c16.4-9.1,33.5-21.8,51.9-40.3C180.1,696.1,188.5,656.5,197.5,614.6z"/>
	<path class="st1" d="M814.1,821.6c-41.9,8.9-81.6,17.3-130.7,66.4c-46.8,46.8-56.7,85.1-65.2,124.9
		c161.1-34,294.3-143.7,360.5-290.2c-6.8,8.8-14.8,17.7-24,27C901.4,803.1,857,812.5,814.1,821.6z"/>
	<path class="st1" d="M926.6,509.1c-9.1,42.9-18.6,87.3-71.9,140.6c-53.3,53.3-97.7,62.7-140.6,71.9c-41.9,8.9-81.6,17.3-130.7,66.4
		c-49,49.1-57.5,88.7-66.4,130.7c-7,32.7-14.1,66.3-40.7,104c11.8,0.8,23.7,1.2,35.7,1.2c28.9,0,57.3-2.4,84.9-7
		c0.2-0.8,0.3-1.6,0.5-2.4c9.1-42.9,18.6-87.3,71.9-140.6c53.3-53.3,97.7-62.7,140.6-71.9c41.9-8.9,81.6-17.3,130.7-66.4
		s57.5-88.7,66.4-130.7c4-18.8,8-37.8,15.8-57.8c0.8-11.6,1.2-23.4,1.2-35.2c0-49.9-7.1-98-20.4-143.6c-3.5,3.2-7,6.5-10.6,10.1
		C943.9,427.6,935.5,467.2,926.6,509.1z"/>
	<path class="st3" d="M245.1,859.4c53.3-53.3,62.8-97.7,71.9-140.6c8.9-41.9,17.4-81.5,66.4-130.7c49.1-49.1,88.7-57.5,130.7-66.4
		c42.9-9.1,87.3-18.6,140.6-71.9c53.3-53.3,62.7-97.7,71.9-140.6c8.9-41.9,17.3-81.6,66.4-130.7c22.5-22.5,43.1-36.5,62.8-45.9
		c-5.3-4.8-10.8-9.6-16.3-14.2c-19.1,10.1-39.1,24.4-60.6,45.9C725.6,217.6,716.1,262,707,305c-8.9,41.9-17.3,81.6-66.4,130.7
		c-49.1,49.1-88.7,57.5-130.7,66.4c-42.9,9.1-87.3,18.6-140.6,71.9c-53.2,53.3-62.7,97.7-71.8,140.6c-8.9,41.9-17.4,81.5-66.5,130.7
		c-22.6,22.6-43.2,36.6-63,46c5.3,4.8,10.8,9.6,16.3,14.2C203.5,895.3,223.6,880.9,245.1,859.4z"/>
	<path class="st3" d="M907,505c-8.9,41.9-17.3,81.6-66.4,130.7s-88.7,57.5-130.7,66.4c-42.9,9.1-87.3,18.6-140.6,71.9
		c-53.2,53.3-62.7,97.7-71.8,140.6c-7.4,34.7-14.4,67.8-44.5,106.1c7.7,0.9,15.5,1.6,23.3,2.1c26.6-37.7,33.8-71.3,40.7-104
		c8.9-41.9,17.4-81.5,66.4-130.7c49.1-49.1,88.7-57.5,130.7-66.4c42.9-9.1,87.3-18.6,140.6-71.9c53.3-53.3,62.7-97.7,71.9-140.6
		c8.9-41.9,17.3-81.6,66.4-130.7c3.6-3.6,7.1-6.9,10.6-10.1c-2-7-4.2-14-6.6-20.9c-5.9,5.1-12,10.6-18.1,16.8
		C925.6,417.6,916.1,462,907,505z"/>
	<path class="st3" d="M940.6,735.6c-49.1,49.1-88.7,57.5-130.7,66.4c-42.9,9.1-87.3,18.6-140.6,71.9
		c-53.3,53.3-62.7,97.7-71.9,140.6c-0.2,0.8-0.3,1.6-0.5,2.4c7.2-1.2,14.3-2.5,21.3-4c8.5-39.8,18.4-78,65.2-124.9
		c49.1-49.1,88.7-57.5,130.7-66.4c42.9-9.1,87.3-18.6,140.6-71.9c9.3-9.3,17.2-18.2,24-27c24.5-54.2,39.8-113.3,44.1-175.6
		c-7.7,19.9-11.8,39-15.8,57.8C998.1,646.9,989.7,686.5,940.6,735.6z"/>
	<path class="st3" d="M807,405c-8.9,41.9-17.3,81.6-66.4,130.7c-49.1,49.1-88.7,57.5-130.7,66.4c-42.9,9.1-87.3,18.6-140.6,71.9
		c-53.2,53.3-62.7,97.7-71.8,140.6c-8.9,41.9-17.4,81.5-66.5,130.7c-12.6,12.6-24.6,22.6-36.2,30.5c7,3.3,14,6.4,21.2,9.3
		c9.5-7.2,19.2-15.7,29.2-25.7c53.3-53.3,62.8-97.7,71.9-140.6c8.9-41.9,17.4-81.5,66.4-130.7c49.1-49.1,88.7-57.5,130.7-66.4
		c42.9-9.1,87.3-18.6,140.6-71.9c53.3-53.3,62.7-97.7,71.9-140.6c8.9-41.9,17.3-81.6,66.4-130.7c18.4-18.4,35.4-31,51.7-40.2
		c-3.6-5.6-7.3-11.2-11.1-16.7c-17.3,9.9-35.5,23.4-54.8,42.8C825.6,317.6,816.1,362,807,405z"/>
	<path class="st3" d="M217,618.8c8.9-41.9,17.4-81.5,66.5-130.6c49.1-49.1,88.7-57.5,130.7-66.4c42.9-9.1,87.3-18.6,140.6-71.9
		s62.7-97.7,71.9-140.6c8.9-41.9,17.3-81.6,66.4-130.7c12.6-12.6,24.5-22.5,36-30.4c-7-3.3-14-6.4-21.2-9.3
		c-9.4,7.2-19,15.6-29,25.6c-53.3,53.3-62.7,97.7-71.9,140.6c-8.9,41.9-17.3,81.6-66.4,130.7c-49.1,49.1-88.7,57.5-130.7,66.4
		c-42.9,9.1-87.3,18.6-140.6,71.9c-53.3,53.3-62.8,97.7-71.9,140.6c-8.9,41.9-17.4,81.5-66.5,130.6c-18.4,18.4-35.5,31.1-51.9,40.3
		c3.6,5.6,7.3,11.2,11,16.7c17.4-9.9,35.6-23.5,55-42.8C198.4,706.1,207.9,661.7,217,618.8z"/>
	<path class="st3" d="M117,518.7c8.9-41.9,17.4-81.5,66.4-130.7c49.1-49.1,88.7-57.5,130.7-66.4c42.9-9.1,87.3-18.6,140.6-71.9
		c53.3-53.3,62.8-97.7,71.9-140.6C534,74.5,541,41.5,570.9,3.3c-7.7-0.9-15.5-1.6-23.3-2.1C521.1,38.8,514,72.3,507.1,105
		c-8.9,41.9-17.4,81.5-66.5,130.7c-49.1,49.1-88.7,57.5-130.7,66.4c-42.9,9.1-87.3,18.6-140.6,71.9c-53.2,53.3-62.7,97.7-71.8,140.6
		c-8.9,41.9-17.4,81.5-66.5,130.7c-3.6,3.6-7.1,7-10.6,10.1c2,7,4.2,14,6.6,20.9c6-5.1,12-10.7,18.2-16.9
		C98.4,606.1,107.9,561.7,117,518.7z"/>
	<path class="st3" d="M83.4,288.1c49.1-49.1,88.7-57.5,130.7-66.4c42.9-9.1,87.3-18.6,140.6-71.9C408,96.5,417.5,52.1,426.6,9.1
		c0.1-0.7,0.3-1.4,0.4-2.1c-7.2,1.2-14.3,2.5-21.3,4c-8.5,39.7-18.4,77.8-65.2,124.6c-49.1,49.1-88.7,57.5-130.7,66.4
		c-42.9,9.1-87.3,18.6-140.6,71.9c-9.1,9.1-17,18-23.7,26.7C20.9,354.8,5.5,414.1,1.2,476.5c7.8-20,11.8-39,15.8-57.8
		C26,376.8,34.4,337.2,83.4,288.1z"/>
</g>
<path id="M" class="st4" d="M669.1,785.7V450.6l-157,143l-157-143v335.2H245.6V238.1h37.5l228.9,207.8l228.1-207.8h38.3v547.7H669.1
	V785.7z"/>
</svg>
