<svg version="1.1" xmlns="http://www.w3.org/2000/svg" xmlns:xlink="http://www.w3.org/1999/xlink" x="0px" y="0px"
				viewBox="0 0 1080 7680" style="enable-background:new 0 0 1080 7680;" xml:space="preserve">
				<style type="text/css">
				.st1{ fill: hsl(120 1% 25% / .2); }
				</style>
				<g>
					<path class="st1"
						d="M805.9,71.5c-53.3,53.3-62.7,97.7-71.9,140.6c-8.9,41.9-17.3,81.5-66.5,130.6c-49.1,49.1-88.7,57.5-130.6,66.5
		c-42.9,9.1-87.3,18.6-140.6,71.9c-0.1,0.1-0.2,0.2-0.3,0.3c0,0-0.1,0.1-0.1,0.1c-53.3,53.3-62.7,97.7-71.9,140.6
		c-8.9,41.9-17.3,81.4-66.3,130.5c-49,48.9-88.6,57.3-130.4,66.2C88,827.2,47.5,835.8,0,878.1v27.6c0.1-0.1,0.1-0.1,0.2-0.2
		c49-48.9,88.6-57.4,130.5-66.3c42.9-9.1,87.3-18.6,140.6-71.9c0,0,0,0,0,0c0.1-0.1,0.2-0.2,0.4-0.4c0.1-0.1,0.1-0.1,0.2-0.2
		c0.1-0.1,0.1-0.1,0.2-0.2c53.3-53.3,62.7-97.7,71.9-140.6c8.9-41.9,17.3-81.4,66.2-130.4c49-48.9,88.6-57.4,130.5-66.3
		c42.9-9.1,87.3-18.6,140.6-71.9c0,0,0,0,0,0c0.1-0.1,0.2-0.2,0.4-0.4c53.3-53.3,62.7-97.7,71.9-140.6
		c8.9-41.9,17.3-81.5,66.5-130.6c49.1-49.1,88.7-57.5,130.6-66.5c21.3-4.5,43-9.2,66-19.2h-71.9C902.3,9,858.4,18.9,805.9,71.5z" />
					<path class="st1" d="M934,412.1c-8.9,41.9-17.3,81.5-66.5,130.6c-49.1,49.1-88.7,57.5-130.6,66.5c-42.9,9.1-87.3,18.6-140.6,71.9
		c-0.1,0.1-0.1,0.2-0.2,0.2c-0.1,0.1-0.1,0.1-0.2,0.2c-53.3,53.3-62.7,97.7-71.9,140.6c-8.9,41.9-17.3,81.4-66.3,130.5
		c-49,48.9-88.6,57.3-130.4,66.2c-42.9,9.1-87.3,18.6-140.6,71.9c0,0,0,0,0,0c-0.1,0.1-0.2,0.2-0.4,0.4c-0.1,0.1-0.2,0.2-0.3,0.3
		c0,0-0.1,0.1-0.1,0.1c-53.3,53.3-62.7,97.7-71.9,140.6c-8.9,41.9-17.3,81.4-66.3,130.5c-16.9,16.8-32.6,28.9-47.7,37.8v23.2
		c19.3-10.1,39.6-24.5,61.3-46.3c0,0,0,0,0,0c0.1-0.1,0.2-0.2,0.4-0.4c0.1-0.1,0.1-0.1,0.2-0.2c0.1-0.1,0.1-0.1,0.2-0.2
		c53.3-53.3,62.7-97.7,71.9-140.6c8.9-41.9,17.3-81.4,66.2-130.4c49-48.9,88.6-57.4,130.5-66.3c42.9-9.1,87.3-18.6,140.6-71.9
		c0,0,0,0,0,0c0.1-0.1,0.2-0.2,0.4-0.4c0.1-0.1,0.1-0.1,0.2-0.2c0.1-0.1,0.1-0.1,0.2-0.2c53.3-53.3,62.7-97.7,71.9-140.6
		c8.9-41.9,17.3-81.4,66.3-130.4c49-48.9,88.6-57.3,130.4-66.3c42.9-9.1,87.3-18.6,140.6-71.9c0,0,0,0,0,0c0.1-0.1,0.2-0.2,0.4-0.4
		c53.3-53.3,62.7-97.7,71.9-140.6c8.9-41.9,17.3-81.5,66.5-130.6c21.5-21.5,41.1-35.2,60-44.5V219c-23.1,10.2-47.5,25.8-74.1,52.5
		C952.6,324.8,943.2,369.2,934,412.1z" />
					<path class="st1" d="M967.6,642.8c-49.1,49.1-88.7,57.5-130.6,66.5c-42.9,9.1-87.3,18.6-140.6,71.9c-0.1,0.1-0.1,0.2-0.2,0.2
		c-0.1,0.1-0.1,0.1-0.2,0.2c-53.3,53.3-62.7,97.7-71.9,140.6c-8.9,41.9-17.3,81.4-66.3,130.4c-49,48.9-88.6,57.3-130.4,66.3
		c-42.9,9.1-87.3,18.6-140.6,71.9c0,0,0,0,0,0c-0.1,0.1-0.2,0.2-0.4,0.4c-0.1,0.1-0.2,0.2-0.3,0.3c0,0-0.1,0.1-0.1,0.1
		c-53.3,53.3-62.7,97.7-71.9,140.6c-8.9,41.9-17.3,81.4-66.3,130.5c-49,48.9-88.6,57.3-130.4,66.2c-5.7,1.2-11.5,2.5-17.3,3.8v21.2
		c6.9-1.6,13.7-3.1,20.7-4.6c42.9-9.1,87.3-18.6,140.6-71.9c0,0,0,0,0,0c0.1-0.1,0.2-0.2,0.4-0.4c0.1-0.1,0.1-0.1,0.2-0.2
		c0.1-0.1,0.1-0.1,0.2-0.2c53.3-53.3,62.7-97.7,71.9-140.6c8.9-41.9,17.3-81.4,66.2-130.4c49-48.9,88.6-57.4,130.5-66.3
		c42.9-9.1,87.3-18.6,140.6-71.9c0,0,0,0,0,0c0.1-0.1,0.2-0.2,0.4-0.4c0.1-0.1,0.1-0.1,0.2-0.2c0.1-0.1,0.1-0.1,0.2-0.2
		c53.3-53.3,62.7-97.7,71.9-140.6c8.9-41.9,17.3-81.4,66.3-130.4c49-48.9,88.6-57.3,130.4-66.3c42.9-9.1,87.3-18.6,140.6-71.9
		c0,0,0,0,0,0c0.1-0.1,0.2-0.2,0.4-0.4c53.3-53.3,62.7-97.7,71.9-140.6c5.6-26.3,11-51.7,26.4-79.2v-36.2
		c-31,40.7-38.6,76.4-46,111.2C1025.1,554,1016.7,593.7,967.6,642.8z" />
					<path class="st1" d="M936.9,809.2c-42.9,9.1-87.3,18.6-140.6,71.9c-0.1,0.1-0.1,0.2-0.2,0.2c-0.1,0.1-0.1,0.1-0.2,0.2
		c-53.3,53.3-62.7,97.7-71.9,140.6c-8.9,41.9-17.3,81.4-66.3,130.4c-49,48.9-88.6,57.3-130.4,66.3c-42.9,9.1-87.3,18.6-140.6,71.9
		c0,0,0,0,0,0c-0.1,0.1-0.2,0.2-0.4,0.4c-0.1,0.1-0.2,0.2-0.3,0.3c0,0-0.1,0.1-0.1,0.1c-53.3,53.3-62.7,97.7-71.9,140.6
		c-8.9,41.9-17.3,81.4-66.3,130.5c-49,48.9-88.6,57.3-130.4,66.2c-36.5,7.8-74.1,15.8-117.3,50.8v26.5
		c44.6-40.7,81.6-48.6,120.7-56.9c42.9-9.1,87.3-18.6,140.6-71.9c0,0,0,0,0,0c0.1-0.1,0.2-0.2,0.4-0.4c0.1-0.1,0.1-0.1,0.2-0.2
		c0.1-0.1,0.1-0.1,0.2-0.2c53.3-53.3,62.7-97.7,71.9-140.6c8.9-41.9,17.3-81.4,66.2-130.4c49-48.9,88.6-57.4,130.5-66.3
		c42.9-9.1,87.3-18.6,140.6-71.9c0,0,0,0,0,0c0.1-0.1,0.2-0.2,0.4-0.4c0.1-0.1,0.1-0.1,0.2-0.2c0.1-0.1,0.1-0.1,0.2-0.2
		c53.3-53.3,62.7-97.7,71.9-140.6c8.9-41.9,17.3-81.4,66.3-130.4c49-48.9,88.6-57.3,130.4-66.3c42.6-9.1,86.6-18.4,139.3-70.6v-29
		c-3.8,4.3-8,8.7-12.4,13.2C1018.5,791.9,978.9,800.3,936.9,809.2z" />
					<path class="st1" d="M905.9,171.5c-53.3,53.3-62.7,97.7-71.9,140.6c-8.9,41.9-17.3,81.5-66.5,130.6
		c-49.1,49.1-88.7,57.5-130.6,66.5c-42.9,9.1-87.3,18.6-140.6,71.9c-0.1,0.1-0.2,0.2-0.3,0.3c0,0-0.1,0.1-0.1,0.1
		c-53.3,53.3-62.7,97.7-71.9,140.6c-8.9,41.9-17.3,81.4-66.3,130.5c-49,48.9-88.6,57.3-130.4,66.2c-42.9,9.1-87.3,18.6-140.6,71.9
		c0,0,0,0,0,0c-0.1,0.1-0.2,0.2-0.4,0.4c-0.1,0.1-0.2,0.2-0.3,0.3c0,0-0.1,0.1-0.1,0.1c-53.3,53.3-62.7,97.7-71.9,140.6
		c-3.7,17.6-7.4,34.8-14,52.5v45.2c21.2-33.7,27.7-64.1,34-93.9c8.9-41.9,17.3-81.4,66.2-130.4c49-48.9,88.6-57.4,130.5-66.3
		c42.9-9.1,87.3-18.6,140.6-71.9c0,0,0,0,0,0c0.1-0.1,0.2-0.2,0.4-0.4c0.1-0.1,0.1-0.1,0.2-0.2c0.1-0.1,0.1-0.1,0.2-0.2
		c53.3-53.3,62.7-97.7,71.9-140.6c8.9-41.9,17.3-81.4,66.2-130.4c49-48.9,88.6-57.4,130.5-66.3c42.9-9.1,87.3-18.6,140.6-71.9
		c0,0,0,0,0,0c0.1-0.1,0.2-0.2,0.4-0.4c53.3-53.3,62.7-97.7,71.9-140.6c8.9-41.9,17.3-81.5,66.5-130.6
		c49.1-49.1,88.7-57.5,130.6-66.5c9.7-2.1,19.4-4.1,29.3-6.7V91.7c-11.1,3.1-22.2,5.5-33.5,7.9
		C1003.6,108.8,959.2,118.2,905.9,171.5z" />
					<path class="st1" d="M171.3,667.3C171.3,667.3,171.3,667.3,171.3,667.3c0.2-0.2,0.3-0.3,0.4-0.4c0.1-0.1,0.1-0.1,0.2-0.2
		c0.1-0.1,0.1-0.1,0.2-0.2c53.3-53.3,62.7-97.7,71.9-140.6c8.9-41.9,17.3-81.4,66.2-130.4c49-48.9,88.6-57.4,130.5-66.3
		c42.9-9.1,87.3-18.6,140.6-71.9c0,0,0,0,0,0c0.1-0.1,0.2-0.2,0.4-0.4c53.3-53.3,62.7-97.7,71.9-140.6c8-37.8,15.7-73.6,53-116.3
		h-25.9c-31.6,41-39.2,77.1-46.7,112.1c-8.9,41.9-17.3,81.5-66.5,130.6c-49.1,49.1-88.7,57.5-130.6,66.5
		c-42.9,9.1-87.3,18.6-140.6,71.9c-0.1,0.1-0.2,0.2-0.3,0.3c0,0-0.1,0.1-0.1,0.1c-53.3,53.3-62.7,97.7-71.9,140.6
		c-8.9,41.9-17.3,81.4-66.3,130.5c-49,48.9-88.6,57.3-130.4,66.2c-9,1.9-18.1,3.9-27.3,6.2v21.3c10.2-2.7,20.4-4.9,30.7-7.1
		C73.6,730,118,720.6,171.3,667.3z" />
					<path class="st1" d="M71.3,567.3c0.1-0.1,0.2-0.2,0.4-0.4c0.1-0.1,0.1-0.1,0.2-0.2c0.1-0.1,0.1-0.1,0.2-0.2
		c53.3-53.3,62.7-97.7,71.9-140.6c8.9-41.9,17.3-81.4,66.2-130.4c49-48.9,88.6-57.4,130.5-66.3c42.9-9.1,87.3-18.6,140.6-71.9
		c0,0,0,0,0,0c0.1-0.1,0.2-0.2,0.4-0.4c53.3-53.3,62.7-97.7,71.9-140.6c1.2-5.5,2.3-10.9,3.5-16.3h-20.5c-0.9,4.1-1.8,8.1-2.6,12.1
		c-8.9,41.9-17.3,81.5-66.5,130.6c-49.1,49.1-88.7,57.5-130.6,66.5c-42.9,9.1-87.3,18.6-140.6,71.9c-0.1,0.1-0.2,0.2-0.3,0.3
		c0,0-0.1,0.1-0.1,0.1c-53.3,53.3-62.7,97.7-71.9,140.6c-8.9,41.9-17.3,81.4-66.3,130.5c-20.6,20.6-39.6,34-57.7,43.3v22.6
		C22.3,608.3,45.8,592.8,71.3,567.3C71.3,567.3,71.3,567.3,71.3,567.3z" />
					<path class="st1" d="M110.2,195.5c49-48.9,88.6-57.4,130.5-66.3c42.9-9.1,87.3-18.6,140.6-71.9c0,0,0,0,0,0
		c0.1-0.1,0.2-0.2,0.4-0.4c20.1-20.1,34-38.9,43.9-56.9h-23.2c-8.6,13.6-19.8,27.7-34.8,42.8c-49.1,49.1-88.7,57.5-130.6,66.5
		c-42.9,9.1-87.3,18.6-140.6,71.9c-0.1,0.1-0.2,0.2-0.3,0.3c0,0-0.1,0.1-0.1,0.1C42.6,234.8,33.2,279.2,24,322.1
		c-5.3,24.9-10.4,49-24,74.8v37.5c29.3-39.6,36.7-74.5,44-108.5C52.9,284,61.3,244.5,110.2,195.5z" />
					<path class="st1" d="M140.7,29.2c27.4-5.8,55.4-11.8,85.9-29.2H175c-12.7,3.8-25.3,6.5-38.1,9.2C95,18.1,51.7,27.4,0,77.5v28.8
		c3.2-3.5,6.6-7.1,10.2-10.7C59.2,46.5,98.8,38.1,140.7,29.2z" />
					<path class="st1" d="M986.7,1890.7c-0.1,0.1-0.2,0.2-0.4,0.4c-0.1,0.1-0.1,0.2-0.2,0.2c-0.1,0.1-0.1,0.1-0.2,0.2
		c-53.3,53.3-62.7,97.7-71.9,140.6c-8.9,41.9-17.3,81.4-66.3,130.4c-49,48.9-88.6,57.3-130.4,66.3c-42.9,9.1-87.3,18.6-140.6,71.9
		c0,0,0,0,0,0c-0.1,0.1-0.2,0.2-0.4,0.4c-0.1,0.1-0.1,0.2-0.2,0.2c-0.1,0.1-0.1,0.1-0.2,0.2c-53.3,53.3-62.7,97.7-71.9,140.6
		c-8.9,41.9-17.3,81.4-66.3,130.5c-49,48.9-88.6,57.3-130.4,66.2c-42.9,9.1-87.3,18.6-140.6,71.9c0,0,0,0,0,0
		c-0.1,0.1-0.2,0.2-0.4,0.4c-0.1,0.1-0.2,0.2-0.3,0.3c0,0-0.1,0.1-0.1,0.1c-53.3,53.3-62.7,97.7-71.9,140.6
		c-8.9,41.9-17.3,81.4-66.3,130.5c-9.6,9.6-18.8,17.6-27.7,24.3v24.8c13.2-8.8,26.9-20,41.3-34.4c0,0,0,0,0,0
		c0.1-0.1,0.2-0.2,0.4-0.4c0.1-0.1,0.1-0.1,0.2-0.2c0.1-0.1,0.1-0.1,0.2-0.2c53.3-53.3,62.7-97.7,71.9-140.6
		c8.9-41.9,17.3-81.4,66.2-130.4c49-48.9,88.6-57.4,130.5-66.3c42.9-9.1,87.3-18.6,140.6-71.9c0,0,0,0,0,0c0.1-0.1,0.2-0.2,0.4-0.4
		c0.1-0.1,0.1-0.1,0.2-0.2c0.1-0.1,0.1-0.1,0.2-0.2c53.3-53.3,62.7-97.7,71.9-140.6c8.9-41.9,17.3-81.4,66.3-130.4
		c49-48.9,88.6-57.3,130.4-66.3c42.9-9.1,87.3-18.6,140.6-71.9c0,0,0,0,0,0c0.1-0.1,0.2-0.2,0.4-0.4c0.1-0.1,0.1-0.1,0.2-0.2
		c0.1-0.1,0.1-0.1,0.2-0.2c53.3-53.3,62.7-97.7,71.9-140.6c8.9-41.9,17.3-81.4,66.3-130.4c29.1-29,54.9-43.8,79.8-52.9v-21.7
		C1051.2,1840.5,1020.8,1856.6,986.7,1890.7C986.7,1890.7,986.7,1890.7,986.7,1890.7z" />
					<path class="st1" d="M917.3,2428.8c-42.9,9.1-87.3,18.6-140.6,71.9c0,0,0,0,0,0c-0.1,0.1-0.2,0.2-0.4,0.4c-0.1,0.1-0.1,0.2-0.2,0.2
		c-0.1,0.1-0.1,0.1-0.2,0.2c-53.3,53.3-62.7,97.7-71.9,140.6c-8.9,41.9-17.3,81.4-66.3,130.4c-49,48.9-88.6,57.3-130.4,66.3
		c-42.9,9.1-87.3,18.6-140.6,71.9c0,0,0,0,0,0c-0.1,0.1-0.2,0.2-0.4,0.4c-0.1,0.1-0.2,0.2-0.3,0.3c0,0-0.1,0.1-0.1,0.1
		c-53.3,53.3-62.7,97.7-71.9,140.6c-8.9,41.9-17.3,81.4-66.3,130.5c-49,48.9-88.6,57.3-130.4,66.2C66.5,3255.4,35,3262.1,0,3285
		v24.6c36-26.6,67.6-33.4,100.7-40.4c42.9-9.1,87.3-18.6,140.6-71.9c0,0,0,0,0,0c0.1-0.1,0.2-0.2,0.4-0.4c0.1-0.1,0.1-0.1,0.2-0.2
		c0.1-0.1,0.1-0.1,0.2-0.2c53.3-53.3,62.7-97.7,71.9-140.6c8.9-41.9,17.3-81.4,66.2-130.4c49-48.9,88.6-57.4,130.5-66.3
		c42.9-9.1,87.3-18.6,140.6-71.9c0,0,0,0,0,0c0.1-0.1,0.2-0.2,0.4-0.4c0.1-0.1,0.1-0.1,0.2-0.2c0.1-0.1,0.1-0.1,0.2-0.2
		c53.3-53.3,62.7-97.7,71.9-140.6c8.9-41.9,17.3-81.4,66.3-130.4c49-48.9,88.6-57.3,130.4-66.3c42.9-9.1,87.3-18.6,140.6-71.9
		c0,0,0,0,0,0c0.1-0.1,0.2-0.2,0.4-0.4c0.1-0.1,0.1-0.1,0.2-0.2c0.1-0.1,0.1-0.1,0.2-0.2c6.6-6.6,12.5-13.1,17.9-19.4v-33.4
		c-8.2,12.4-18.7,25.3-32.2,38.8C998.8,2411.5,959.2,2419.9,917.3,2428.8z" />
					<path class="st1" d="M876.7,2600.7C876.7,2600.7,876.7,2600.7,876.7,2600.7c-0.2,0.2-0.3,0.3-0.4,0.4c-0.1,0.1-0.1,0.2-0.2,0.2
		c-0.1,0.1-0.1,0.1-0.2,0.2c-53.3,53.3-62.7,97.7-71.9,140.6c-8.9,41.9-17.3,81.4-66.3,130.4c-49,48.9-88.6,57.3-130.4,66.3
		c-42.9,9.1-87.3,18.6-140.6,71.9c0,0,0,0,0,0c-0.1,0.1-0.2,0.2-0.4,0.4c-0.1,0.1-0.2,0.2-0.3,0.3c0,0-0.1,0.1-0.1,0.1
		c-53.3,53.3-62.7,97.7-71.9,140.6c-8.9,41.9-17.3,81.4-66.3,130.5c-49,48.9-88.6,57.3-130.4,66.2c-42.9,9.1-87.3,18.6-140.6,71.9
		c0,0,0,0,0,0c-0.1,0.1-0.2,0.2-0.4,0.4c-0.1,0.1-0.2,0.2-0.3,0.3c0,0-0.1,0.1-0.1,0.1c-29.8,29.8-45.9,56.9-55.9,82.4v80.2
		c1.4-6.1,2.7-12.2,4-18.2c8.9-41.9,17.3-81.4,66.2-130.4c49-48.9,88.6-57.4,130.5-66.3c42.9-9.1,87.3-18.6,140.6-71.9c0,0,0,0,0,0
		c0.1-0.1,0.2-0.2,0.4-0.4c0.1-0.1,0.1-0.1,0.2-0.2c0.1-0.1,0.1-0.1,0.2-0.2c53.3-53.3,62.7-97.7,71.9-140.6
		c8.9-41.9,17.3-81.4,66.2-130.4c49-48.9,88.6-57.4,130.5-66.3c42.9-9.1,87.3-18.6,140.6-71.9c0,0,0,0,0,0c0.1-0.1,0.2-0.2,0.4-0.4
		c0.1-0.1,0.1-0.1,0.2-0.2c0.1-0.1,0.1-0.1,0.2-0.2c53.3-53.3,62.7-97.7,71.9-140.6c8.9-41.9,17.3-81.4,66.3-130.4
		c49-48.9,88.6-57.3,130.4-66.3c19.3-4.1,38.8-8.3,59.3-16.4v-22.1c-21.3,9.4-41.7,13.7-62.7,18.2
		C974.4,2538,930,2547.4,876.7,2600.7z" />
					<path class="st1" d="M976.7,2700.7c-0.1,0.1-0.2,0.2-0.4,0.4c-0.1,0.1-0.1,0.2-0.2,0.2c-0.1,0.1-0.1,0.1-0.2,0.2
		c-53.3,53.3-62.7,97.7-71.9,140.6c-8.9,41.9-17.3,81.4-66.3,130.4c-49,48.9-88.6,57.3-130.4,66.3c-42.9,9.1-87.3,18.6-140.6,71.9
		c0,0,0,0,0,0c-0.1,0.1-0.2,0.2-0.4,0.4c-0.1,0.1-0.1,0.2-0.2,0.2c-0.1,0.1-0.1,0.1-0.2,0.2c-53.3,53.3-62.7,97.7-71.9,140.6
		c-8.9,41.9-17.3,81.4-66.3,130.5c-49,48.9-88.6,57.3-130.4,66.2c-42.9,9.1-87.3,18.6-140.6,71.9c0,0,0,0,0,0
		c-0.1,0.1-0.2,0.2-0.4,0.4c-0.1,0.1-0.2,0.2-0.3,0.3c0,0-0.1,0.1-0.1,0.1c-53.3,53.3-62.7,97.7-71.9,140.6
		c-8.9,41.9-17.3,81.4-66.3,130.5c-6.1,6-12,11.5-17.7,16.3v25.6c10.2-7.6,20.8-16.7,31.7-27.6c0.1-0.1,0.1-0.1,0.2-0.2
		c0.1-0.1,0.1-0.1,0.2-0.2c53.3-53.3,62.7-97.7,71.9-140.6c8.9-41.9,17.3-81.4,66.2-130.4c49-48.9,88.6-57.4,130.5-66.3
		c42.9-9.1,87.3-18.6,140.6-71.9c0,0,0,0,0,0c0.1-0.1,0.2-0.2,0.4-0.4c0.1-0.1,0.1-0.1,0.2-0.2c0.1-0.1,0.1-0.1,0.2-0.2
		c53.3-53.3,62.7-97.7,71.9-140.6c8.9-41.9,17.3-81.4,66.3-130.4c49-48.9,88.6-57.3,130.4-66.3c42.9-9.1,87.3-18.6,140.6-71.9
		c0,0,0,0,0,0c0.1-0.1,0.2-0.2,0.4-0.4c0.1-0.1,0.1-0.1,0.2-0.2c0.1-0.1,0.1-0.1,0.2-0.2c53.3-53.3,62.7-97.7,71.9-140.6
		c8.9-41.9,17.3-81.4,66.3-130.4c33-32.9,61.7-47.5,89.8-56.3v-21.4C1048.3,2646.9,1014.8,2662.6,976.7,2700.7
		C976.7,2700.7,976.7,2700.7,976.7,2700.7z" />
					<path class="st1" d="M947.8,2262.6c-49,48.9-88.6,57.3-130.4,66.3c-42.9,9.1-87.3,18.6-140.6,71.9c0,0,0,0,0,0
		c-0.1,0.1-0.2,0.2-0.4,0.4c-0.1,0.1-0.1,0.2-0.2,0.2c-0.1,0.1-0.1,0.1-0.2,0.2c-53.3,53.3-62.7,97.7-71.9,140.6
		c-8.9,41.9-17.3,81.4-66.3,130.4c-49,48.9-88.6,57.3-130.4,66.3c-42.9,9.1-87.3,18.6-140.6,71.9c0,0,0,0,0,0
		c-0.1,0.1-0.2,0.2-0.4,0.4c-0.1,0.1-0.2,0.2-0.3,0.3c0,0-0.1,0.1-0.1,0.1c-53.3,53.3-62.7,97.7-71.9,140.6
		c-8.9,41.9-17.3,81.4-66.3,130.5c-48,47.9-86.9,56.9-127.7,65.7v21.1c0.2,0,0.5-0.1,0.7-0.1c42.9-9.1,87.3-18.6,140.6-71.9
		c0,0,0,0,0,0c0.1-0.1,0.2-0.2,0.4-0.4c0.1-0.1,0.1-0.1,0.2-0.2c0.1-0.1,0.1-0.1,0.2-0.2c53.3-53.3,62.7-97.7,71.9-140.6
		c8.9-41.9,17.3-81.4,66.2-130.4c49-48.9,88.6-57.4,130.5-66.3c42.9-9.1,87.3-18.6,140.6-71.9c0,0,0,0,0,0c0.1-0.1,0.2-0.2,0.4-0.4
		c0.1-0.1,0.1-0.1,0.2-0.2c0.1-0.1,0.1-0.1,0.2-0.2c53.3-53.3,62.7-97.7,71.9-140.6c8.9-41.9,17.3-81.4,66.3-130.4
		c49-48.9,88.6-57.3,130.4-66.3c42.9-9.1,87.3-18.6,140.6-71.9c0,0,0,0,0,0c0.1-0.1,0.2-0.2,0.4-0.4c0.1-0.1,0.1-0.1,0.2-0.2
		c0.1-0.1,0.1-0.1,0.2-0.2c53.3-53.3,62.7-97.7,71.9-140.6c7.5-35.3,14.7-68.9,46-108v-30.4c-48.1,50.6-57.2,93.3-66,134.6
		C1005.1,2174,996.7,2213.5,947.8,2262.6z" />
					<path class="st1" d="M886.7,1790.7C886.7,1790.7,886.7,1790.7,886.7,1790.7c-0.2,0.2-0.3,0.3-0.4,0.4c-0.1,0.1-0.1,0.2-0.2,0.2
		c-0.1,0.1-0.1,0.1-0.2,0.2c-53.3,53.3-62.7,97.7-71.9,140.6c-8.9,41.9-17.3,81.4-66.3,130.4c-49,48.9-88.6,57.3-130.4,66.3
		c-42.9,9.1-87.3,18.6-140.6,71.9c0,0,0,0,0,0c-0.1,0.1-0.2,0.2-0.4,0.4c-0.1,0.1-0.2,0.2-0.3,0.3c0,0-0.1,0.1-0.1,0.1
		c-53.3,53.3-62.7,97.7-71.9,140.6c-8.9,41.9-17.3,81.4-66.3,130.5c-49,48.9-88.6,57.3-130.4,66.2c-42.9,9.1-87.3,18.6-140.6,71.9
		c0,0,0,0,0,0c-0.1,0.1-0.2,0.2-0.4,0.4c-0.1,0.1-0.2,0.2-0.3,0.3c0,0-0.1,0.1-0.1,0.1C23.4,2654,8.8,2690.8,0,2725.7v83.1
		c6.6-18.2,10.3-35.7,14-52.9c8.9-41.9,17.3-81.4,66.2-130.4c49-48.9,88.6-57.4,130.5-66.3c42.9-9.1,87.3-18.6,140.6-71.9
		c0,0,0,0,0,0c0.1-0.1,0.2-0.2,0.4-0.4c0.1-0.1,0.1-0.1,0.2-0.2c0.1-0.1,0.1-0.1,0.2-0.2c53.3-53.3,62.7-97.7,71.9-140.6
		c8.9-41.9,17.3-81.4,66.2-130.4c49-48.9,88.6-57.4,130.5-66.3c42.9-9.1,87.3-18.6,140.6-71.9c0,0,0,0,0,0c0.1-0.1,0.2-0.2,0.4-0.4
		c0.1-0.1,0.1-0.1,0.2-0.2c0.1-0.1,0.1-0.1,0.2-0.2c53.3-53.3,62.7-97.7,71.9-140.6c8.9-41.9,17.3-81.4,66.3-130.4
		c49-48.9,88.6-57.3,130.4-66.3c16.1-3.4,32.4-6.9,49.3-12.7v-21.8c-17.7,6.7-35,10.3-52.7,14.1C984.4,1728,940,1737.4,886.7,1790.7
		z" />
					<path class="st1" d="M927.3,1618.8c-42.9,9.1-87.3,18.6-140.6,71.9c0,0,0,0,0,0c-0.1,0.1-0.2,0.2-0.4,0.4c-0.1,0.1-0.1,0.2-0.2,0.2
		c-0.1,0.1-0.1,0.1-0.2,0.2c-53.3,53.3-62.7,97.7-71.9,140.6c-8.9,41.9-17.3,81.4-66.3,130.4c-49,48.9-88.6,57.3-130.4,66.3
		c-42.9,9.1-87.3,18.6-140.6,71.9c0,0,0,0,0,0c-0.1,0.1-0.2,0.2-0.4,0.4c-0.1,0.1-0.2,0.2-0.3,0.3c0,0-0.1,0.1-0.1,0.1
		c-53.3,53.3-62.7,97.7-71.9,140.6c-8.9,41.9-17.3,81.4-66.3,130.5c-49,48.9-88.6,57.3-130.4,66.2c-33.7,7.2-68.3,14.5-107.3,43.1
		v25.5c40.2-33.2,74.6-40.5,110.7-48.2c42.9-9.1,87.3-18.6,140.6-71.9c0,0,0,0,0,0c0.1-0.1,0.2-0.2,0.4-0.4c0.1-0.1,0.1-0.1,0.2-0.2
		c0.1-0.1,0.1-0.1,0.2-0.2c53.3-53.3,62.7-97.7,71.9-140.6c8.9-41.9,17.3-81.4,66.2-130.4c49-48.9,88.6-57.4,130.5-66.3
		c42.9-9.1,87.3-18.6,140.6-71.9c0,0,0,0,0,0c0.1-0.1,0.2-0.2,0.4-0.4c0.1-0.1,0.1-0.1,0.2-0.2c0.1-0.1,0.1-0.1,0.2-0.2
		c53.3-53.3,62.7-97.7,71.9-140.6c8.9-41.9,17.3-81.4,66.3-130.4c49-48.9,88.6-57.3,130.4-66.3c42.9-9.1,87.3-18.6,140.6-71.9
		c0,0,0,0,0,0c0.1-0.1,0.2-0.2,0.4-0.4c0.1-0.1,0.1-0.1,0.2-0.2c0.1-0.1,0.1-0.1,0.2-0.2c2.7-2.7,5.4-5.5,7.9-8.2v-30.8
		c-6.3,8.1-13.6,16.4-22.2,25C1008.8,1601.5,969.2,1609.9,927.3,1618.8z" />
					<path class="st1" d="M957.8,1452.6c-49,48.9-88.6,57.3-130.4,66.3c-42.9,9.1-87.3,18.6-140.6,71.9c0,0,0,0,0,0
		c-0.1,0.1-0.2,0.2-0.4,0.4c-0.1,0.1-0.1,0.2-0.2,0.2c-0.1,0.1-0.1,0.1-0.2,0.2c-53.3,53.3-62.7,97.7-71.9,140.6
		c-8.9,41.9-17.3,81.4-66.3,130.4c-49,48.9-88.6,57.3-130.4,66.3c-42.9,9.1-87.3,18.6-140.6,71.9c0,0,0,0,0,0
		c-0.1,0.1-0.2,0.2-0.4,0.4c-0.1,0.1-0.2,0.2-0.3,0.3c0,0-0.1,0.1-0.1,0.1c-53.3,53.3-62.7,97.7-71.9,140.6
		c-8.9,41.9-17.3,81.4-66.3,130.5c-49,48.9-88.6,57.3-130.4,66.2c-2.4,0.5-4.9,1-7.3,1.6v21.1c3.5-0.8,7.1-1.5,10.7-2.3
		c42.9-9.1,87.3-18.6,140.6-71.9c0,0,0,0,0,0c0.1-0.1,0.2-0.2,0.4-0.4c0.1-0.1,0.1-0.1,0.2-0.2c0.1-0.1,0.1-0.1,0.2-0.2
		c53.3-53.3,62.7-97.7,71.9-140.6c8.9-41.9,17.3-81.4,66.2-130.4c49-48.9,88.6-57.4,130.5-66.3c42.9-9.1,87.3-18.6,140.6-71.9
		c0,0,0,0,0,0c0.1-0.1,0.2-0.2,0.4-0.4c0.1-0.1,0.1-0.1,0.2-0.2c0.1-0.1,0.1-0.1,0.2-0.2c53.3-53.3,62.7-97.7,71.9-140.6
		c8.9-41.9,17.3-81.4,66.3-130.4c49-48.9,88.6-57.3,130.4-66.3c42.9-9.1,87.3-18.6,140.6-71.9c0,0,0,0,0,0c0.1-0.1,0.2-0.2,0.4-0.4
		c0.1-0.1,0.1-0.1,0.2-0.2c0.1-0.1,0.1-0.1,0.2-0.2c53.3-53.3,62.7-97.7,71.9-140.6c6.6-31.2,13-61.1,36-94.5v-32.8
		c-39.4,45.8-47.8,85.3-56,123.5C1015.1,1364,1006.7,1403.5,957.8,1452.6z" />
					<path class="st1" d="M996.1,1081.3c-0.1,0.1-0.1,0.1-0.2,0.2c-53.3,53.3-62.7,97.7-71.9,140.6c-8.9,41.9-17.3,81.4-66.3,130.4
		c-49,48.9-88.6,57.3-130.4,66.3c-42.9,9.1-87.3,18.6-140.6,71.9c0,0,0,0,0,0c-0.1,0.1-0.2,0.2-0.4,0.4c-0.1,0.1-0.1,0.2-0.2,0.2
		c-0.1,0.1-0.1,0.1-0.2,0.2c-53.3,53.3-62.7,97.7-71.9,140.6c-8.9,41.9-17.3,81.4-66.3,130.5c-49,48.9-88.6,57.3-130.4,66.2
		c-42.9,9.1-87.3,18.6-140.6,71.9c0,0,0,0,0,0c-0.1,0.1-0.2,0.2-0.4,0.4c-0.1,0.1-0.2,0.2-0.3,0.3c0,0-0.1,0.1-0.1,0.1
		c-53.3,53.3-62.7,97.7-71.9,140.6c-8.9,41.9-17.3,81.4-66.3,130.5C24.6,2185.7,12,2196,0,2204.1v23.9c16.3-9.7,33.3-22.7,51.3-40.7
		c0,0,0,0,0,0c0.1-0.1,0.2-0.2,0.4-0.4c0.1-0.1,0.1-0.1,0.2-0.2c0.1-0.1,0.1-0.1,0.2-0.2c53.3-53.3,62.7-97.7,71.9-140.6
		c8.9-41.9,17.3-81.4,66.2-130.4c49-48.9,88.6-57.4,130.5-66.3c42.9-9.1,87.3-18.6,140.6-71.9c0,0,0,0,0,0c0.1-0.1,0.2-0.2,0.4-0.4
		c0.1-0.1,0.1-0.1,0.2-0.2c0.1-0.1,0.1-0.1,0.2-0.2c53.3-53.3,62.7-97.7,71.9-140.6c8.9-41.9,17.3-81.4,66.3-130.4
		c49-48.9,88.6-57.3,130.4-66.3c42.9-9.1,87.3-18.6,140.6-71.9c0,0,0,0,0,0c0.1-0.1,0.2-0.2,0.4-0.4c0.1-0.1,0.1-0.1,0.2-0.2
		c0.1-0.1,0.1-0.1,0.2-0.2c53.3-53.3,62.7-97.7,71.9-140.6c8.9-41.9,17.3-81.4,66.3-130.4c25.2-25.2,47.9-39.6,69.8-48.9v-21.8
		c-25.9,10-53.4,26.1-83.7,56.4C996.2,1081.2,996.2,1081.2,996.1,1081.3z" />
					<path class="st1" d="M896.3,981.1c-0.1,0.1-0.1,0.2-0.2,0.2c-0.1,0.1-0.1,0.1-0.2,0.2c-53.3,53.3-62.7,97.7-71.9,140.6
		c-8.9,41.9-17.3,81.4-66.3,130.4c-49,48.9-88.6,57.3-130.4,66.3c-42.9,9.1-87.3,18.6-140.6,71.9c0,0,0,0,0,0
		c-0.1,0.1-0.2,0.2-0.4,0.4c-0.1,0.1-0.2,0.2-0.3,0.3c0,0-0.1,0.1-0.1,0.1c-53.3,53.3-62.7,97.7-71.9,140.6
		c-8.9,41.9-17.3,81.4-66.3,130.5c-49,48.9-88.6,57.3-130.4,66.2c-42.9,9.1-87.3,18.6-140.6,71.9c0,0,0,0,0,0
		c-0.1,0.1-0.2,0.2-0.4,0.4c-0.1,0.1-0.2,0.2-0.3,0.3c0,0-0.1,0.1-0.1,0.1c-53.3,53.3-62.7,97.7-71.9,140.6
		c-1.3,6.2-2.6,12.3-4,18.3v61.6c13.5-26.8,18.8-51.7,24-76.2c8.9-41.9,17.3-81.4,66.2-130.4c49-48.9,88.6-57.4,130.5-66.3
		c42.9-9.1,87.3-18.6,140.6-71.9c0,0,0,0,0,0c0.1-0.1,0.2-0.2,0.4-0.4c0.1-0.1,0.1-0.1,0.2-0.2c0.1-0.1,0.1-0.1,0.2-0.2
		c53.3-53.3,62.7-97.7,71.9-140.6c8.9-41.9,17.3-81.4,66.2-130.4c49-48.9,88.6-57.4,130.5-66.3c42.9-9.1,87.3-18.6,140.6-71.9
		c0,0,0,0,0,0c0.1-0.1,0.2-0.2,0.4-0.4c0.1-0.1,0.1-0.1,0.2-0.2c0.1-0.1,0.1-0.1,0.2-0.2c53.3-53.3,62.7-97.7,71.9-140.6
		c8.9-41.9,17.3-81.4,66.3-130.4c49-48.9,88.6-57.3,130.4-66.3c12.9-2.7,25.9-5.5,39.3-9.5v-21.2c-14.4,4.7-28.6,7.7-43.1,10.8
		C994,918.3,949.6,927.8,896.3,981.1z" />
					<path class="st1" d="M887.3,4858.8c-42.9,9.1-87.3,18.6-140.6,71.9c0,0,0,0,0,0c-0.1,0.1-0.2,0.2-0.3,0.3
		c-53.3,53.3-62.7,97.7-71.9,140.6c-8.9,41.9-17.4,81.5-66.5,130.6c-49.1,49.1-88.7,57.5-130.6,66.5c-42.9,9.1-87.3,18.6-140.6,71.9
		c0,0,0,0.1-0.1,0.1c-0.2,0.2-0.5,0.5-0.7,0.7c-53.3,53.3-62.7,97.7-71.9,140.6c-8.9,41.9-17.3,81.5-66.5,130.6
		c-49.1,49.1-88.7,57.5-130.6,66.5c-21.6,4.6-43.6,9.3-66.9,19.6v22.1c24.4-12.2,47.4-17.1,71.1-22.1c42.9-9.1,87.3-18.6,140.6-71.9
		c53.3-53.3,62.7-97.7,71.9-140.6c8.9-41.9,17.3-81.5,66.5-130.6c49.1-49.1,88.7-57.5,130.6-66.5c42.9-9.1,87.3-18.6,140.6-71.9
		c0,0,0.1-0.1,0.1-0.1c0.2-0.2,0.5-0.5,0.7-0.7c53.3-53.3,62.7-97.7,71.9-140.6c8.9-41.9,17.4-81.5,66.5-130.6
		c49.1-49.1,88.7-57.5,130.6-66.5c42.9-9.1,87.3-18.6,140.6-71.9c0.1-0.1,0.1-0.1,0.2-0.2s0.1-0.1,0.2-0.2
		c22.9-22.9,37.7-44.2,47.9-64.4v-61.6c-8.2,35.4-20.5,70.3-62.2,112.1C968.8,4841.5,929.2,4849.9,887.3,4858.8z" />
					<path class="st1" d="M846.7,5030.7C846.7,5030.7,846.7,5030.7,846.7,5030.7c-0.2,0.2-0.3,0.3-0.4,0.4c-0.1,0.1-0.1,0.1-0.2,0.2
		c-0.1,0.1-0.2,0.2-0.3,0.2c-53.3,53.3-62.7,97.7-71.9,140.6c-8.9,41.9-17.3,81.4-66.3,130.4c-49,48.9-88.6,57.4-130.4,66.3
		c-42.9,9.1-87.3,18.6-140.6,71.9c0,0,0,0,0,0c-0.1,0.1-0.2,0.2-0.4,0.3c-0.1,0.1-0.1,0.1-0.2,0.2c-0.1,0.1-0.1,0.1-0.2,0.2
		c-53.3,53.3-62.7,97.7-71.9,140.6c-8.9,41.9-17.3,81.4-66.3,130.4c-49,48.9-88.6,57.4-130.4,66.3c-42.9,9.1-87.3,18.6-140.6,71.9
		c0,0,0,0,0,0c-0.1,0.1-0.2,0.2-0.4,0.3c-10.3,10.3-19,20.3-26.3,30v36.4c9.2-16.5,21.9-33.7,40.4-52.2
		c49.1-49.1,88.7-57.5,130.6-66.5c42.9-9.1,87.3-18.6,140.6-71.9c0.1-0.1,0.1-0.1,0.2-0.2c0.1-0.1,0.1-0.1,0.2-0.2
		c53.3-53.3,62.7-97.7,71.9-140.6c8.9-41.9,17.3-81.4,66.3-130.5c49-48.9,88.5-57.3,130.4-66.2c42.9-9.1,87.3-18.6,140.6-71.9
		c0,0,0,0,0,0c0.1-0.1,0.2-0.2,0.4-0.4c0.1-0.1,0.1-0.1,0.2-0.2c0.1-0.1,0.1-0.1,0.2-0.2c53.3-53.3,62.7-97.7,71.9-140.6
		c8.9-41.9,17.3-81.5,66.3-130.5c49-48.9,88.5-57.3,130.4-66.2c28.4-6,57.5-12.2,89.3-31.2v-23.9c-32.7,22-62.1,28.2-92.7,34.7
		C944.4,4968,900,4977.4,846.7,5030.7z" />
					<path class="st1" d="M936.3,5941.1c-0.1,0.1-0.1,0.1-0.2,0.2c-0.1,0.1-0.2,0.2-0.3,0.2c-53.3,53.3-62.7,97.7-71.9,140.6
		c-8.9,41.9-17.3,81.4-66.3,130.4c-49,48.9-88.6,57.4-130.4,66.3c-42.9,9.1-87.3,18.6-140.6,71.9c0,0,0,0,0,0
		c-0.1,0.1-0.2,0.2-0.4,0.3c-0.1,0.1-0.1,0.1-0.2,0.2c-0.1,0.1-0.1,0.1-0.2,0.2c-53.3,53.3-62.7,97.7-71.9,140.6
		c-8.9,41.9-17.3,81.4-66.3,130.4c-49,48.9-88.6,57.4-130.4,66.3c-42.9,9.1-87.3,18.6-140.6,71.9c0,0,0,0,0,0
		c-0.1,0.1-0.2,0.2-0.4,0.3c-53.3,53.3-62.7,97.7-71.9,140.6c-7.4,34.7-14.4,67.8-44.4,106v30.7c46.4-49.7,55.3-91.7,64-132.5
		c8.9-41.9,17.4-81.5,66.5-130.6c49.1-49.1,88.7-57.5,130.6-66.5c42.9-9.1,87.3-18.6,140.6-71.9c0.1-0.1,0.1-0.1,0.2-0.2
		c0.1-0.1,0.1-0.1,0.2-0.2c53.3-53.3,62.7-97.7,71.9-140.6c8.9-41.9,17.3-81.4,66.3-130.5c49-48.9,88.5-57.3,130.4-66.2
		c42.9-9.1,87.3-18.6,140.6-71.9c0,0,0,0,0,0c0.1-0.1,0.2-0.2,0.4-0.4c0.1-0.1,0.1-0.1,0.2-0.2c0.1-0.1,0.1-0.1,0.2-0.2
		c53.3-53.3,62.7-97.7,71.9-140.6c8.9-41.9,17.3-81.5,66.3-130.5c48.7-48.6,88.1-57.2,129.7-66.1v-20.8c-1,0.2-2,0.4-3.1,0.7
		C1034,5878.3,989.6,5887.8,936.3,5941.1z" />
					<path class="st1" d="M997.8,6412.6c-49,48.9-88.6,57.4-130.4,66.3c-42.9,9.1-87.3,18.6-140.6,71.9c0,0,0,0,0,0
		c-0.1,0.1-0.2,0.2-0.3,0.3c-0.1,0.1-0.1,0.1-0.2,0.2c-0.1,0.1-0.2,0.2-0.3,0.2c-53.3,53.3-62.7,97.7-71.9,140.6
		c-8.9,41.9-17.3,81.4-66.3,130.4c-49,48.9-88.6,57.4-130.4,66.3c-42.9,9.1-87.3,18.6-140.6,71.9c0,0,0,0,0,0
		c-0.1,0.1-0.2,0.2-0.4,0.3c-53.3,53.3-62.7,97.7-71.9,140.6c-8.9,41.9-17.4,81.5-66.5,130.6c-49.1,49.1-88.7,57.5-130.6,66.5
		c-15.5,3.3-31.1,6.6-47.3,12v21.2c17.3-6.4,34.2-10,51.5-13.7c42.9-9.1,87.3-18.6,140.6-71.9c53.3-53.3,62.7-97.7,71.9-140.6
		c8.9-41.9,17.4-81.5,66.5-130.6c49.1-49.1,88.7-57.5,130.6-66.5c42.9-9.1,87.3-18.6,140.6-71.9c0.1-0.1,0.1-0.1,0.2-0.2
		c0.1-0.1,0.1-0.1,0.2-0.2c53.3-53.3,62.7-97.7,71.9-140.6c8.9-41.9,17.3-81.5,66.3-130.5c49-48.9,88.5-57.3,130.4-66.2
		c42.9-9.1,87.3-18.6,140.6-71.9c0,0,0,0,0,0c0.1-0.1,0.2-0.2,0.4-0.4c0.1-0.1,0.1-0.1,0.2-0.2c0.1-0.1,0.1-0.1,0.2-0.2
		c45.8-45.8,59.2-85,67.9-122.4v-80.2c-7.9,20.1-12,39.3-16,58.2C1055.1,6324,1046.7,6363.5,997.8,6412.6z" />
					<path class="st1" d="M1026.7,6850.7c-0.1,0.1-0.2,0.2-0.3,0.3c-0.1,0.1-0.1,0.1-0.2,0.2c-0.1,0.1-0.2,0.2-0.3,0.2
		c-53.3,53.3-62.7,97.7-71.9,140.6c-8.9,41.9-17.3,81.4-66.3,130.4c-49,48.9-88.6,57.4-130.4,66.3c-42.9,9.1-87.3,18.6-140.6,71.9
		c0,0,0,0,0,0c-0.1,0.1-0.2,0.2-0.3,0.3c-0.1,0.1-0.1,0.1-0.2,0.2c-0.1,0.1-0.2,0.2-0.3,0.2c-53.3,53.3-62.7,97.7-71.9,140.6
		c-8.9,41.9-17.3,81.4-66.3,130.4c-49,48.9-88.6,57.4-130.4,66.3c-42.9,9.1-87.3,18.6-140.6,71.9c0,0,0,0,0,0
		c-0.1,0.1-0.2,0.2-0.4,0.3c-3,3-5.9,6-8.6,8.9h28.1c46.7-44.5,84.9-52.6,125.3-61.2c42.9-9.1,87.3-18.6,140.6-71.9
		c0.1-0.1,0.1-0.1,0.2-0.2c0.1-0.1,0.1-0.1,0.2-0.2c53.3-53.3,62.7-97.7,71.9-140.6c8.9-41.9,17.3-81.5,66.3-130.5
		c49-48.9,88.5-57.3,130.4-66.2c42.9-9.1,87.3-18.6,140.6-71.9c0,0,0,0,0,0c0.1-0.1,0.2-0.2,0.4-0.4c0.1-0.1,0.1-0.1,0.2-0.2
		c0.1-0.1,0.1-0.1,0.2-0.2c53.3-53.3,62.7-97.7,71.9-140.6c8.9-41.9,17.3-81.5,66.3-130.5c13.9-13.9,27.1-24.5,39.7-32.8v-23.8
		C1063.1,6818.6,1045.5,6831.9,1026.7,6850.7C1026.7,6850.7,1026.7,6850.7,1026.7,6850.7z" />
					<path class="st1" d="M1036.2,6041.2c-0.1,0.1-0.2,0.2-0.3,0.2c-53.3,53.3-62.7,97.7-71.9,140.6c-8.9,41.9-17.3,81.4-66.3,130.4
		c-49,48.9-88.6,57.4-130.4,66.3c-42.9,9.1-87.3,18.6-140.6,71.9c0,0,0,0,0,0c-0.1,0.1-0.2,0.2-0.3,0.3c-0.1,0.1-0.1,0.1-0.2,0.2
		c-0.1,0.1-0.2,0.2-0.3,0.2c-53.3,53.3-62.7,97.7-71.9,140.6c-8.9,41.9-17.3,81.4-66.3,130.4c-49,48.9-88.6,57.4-130.4,66.3
		c-42.9,9.1-87.3,18.6-140.6,71.9c0,0,0,0,0,0c-0.1,0.1-0.2,0.2-0.4,0.3c-53.3,53.3-62.7,97.7-71.9,140.6
		c-8.9,41.9-17.4,81.5-66.5,130.6c-28.4,28.4-53.6,43.2-78,52.4v21.2c28.4-9.7,58.5-25.8,92.1-59.4c53.3-53.3,62.7-97.7,71.9-140.6
		c8.9-41.9,17.4-81.5,66.5-130.6c49.1-49.1,88.7-57.5,130.6-66.5c42.9-9.1,87.3-18.6,140.6-71.9c0.1-0.1,0.1-0.1,0.2-0.2
		c0.1-0.1,0.1-0.1,0.2-0.2c53.3-53.3,62.7-97.7,71.9-140.6c8.9-41.9,17.3-81.5,66.3-130.5c49-48.9,88.5-57.3,130.4-66.2
		c42.9-9.1,87.3-18.6,140.6-71.9c0,0,0,0,0,0c0.1-0.1,0.2-0.2,0.4-0.4c0.1-0.1,0.1-0.1,0.2-0.2c0.1-0.1,0.1-0.1,0.2-0.2
		c53.3-53.3,62.7-97.7,71.9-140.6c8.9-41.9,17.3-81.5,66.3-130.5c10.3-10.3,20.1-18.7,29.7-25.8v-24.5c-14,9.1-28.5,20.7-43.7,36
		C1036.3,6041.1,1036.2,6041.2,1036.2,6041.2z" />
					<path class="st1" d="M836.3,5841.1c-0.1,0.1-0.1,0.1-0.2,0.2c-0.1,0.1-0.2,0.2-0.3,0.2c-53.3,53.3-62.7,97.7-71.9,140.6
		c-8.9,41.9-17.3,81.4-66.3,130.4c-49,48.9-88.6,57.4-130.4,66.3c-42.9,9.1-87.3,18.6-140.6,71.9c0,0,0,0,0,0
		c-0.1,0.1-0.2,0.2-0.4,0.3c-0.1,0.1-0.1,0.1-0.2,0.2c-0.1,0.1-0.1,0.1-0.2,0.2c-53.3,53.3-62.7,97.7-71.9,140.6
		c-8.9,41.9-17.3,81.4-66.3,130.4c-49,48.9-88.6,57.4-130.4,66.3c-42.9,9.1-87.3,18.6-140.6,71.9c0,0,0,0,0,0
		c-0.1,0.1-0.2,0.2-0.4,0.3c-6,6-11.4,11.8-16.3,17.6v32.7c7.9-11.5,17.9-23.5,30.4-36.1c49.1-49.1,88.7-57.5,130.6-66.5
		c42.9-9.1,87.3-18.6,140.6-71.9c0.1-0.1,0.1-0.1,0.2-0.2c0.1-0.1,0.1-0.1,0.2-0.2c53.3-53.3,62.7-97.7,71.9-140.6
		c8.9-41.9,17.3-81.4,66.3-130.5c49-48.9,88.5-57.3,130.4-66.2c42.9-9.1,87.3-18.6,140.6-71.9c0,0,0,0,0,0c0.1-0.1,0.2-0.2,0.4-0.4
		c0.1-0.1,0.1-0.1,0.2-0.2c0.1-0.1,0.1-0.1,0.2-0.2c53.3-53.3,62.7-97.7,71.9-140.6c8.9-41.9,17.3-81.5,66.3-130.5
		c49-48.9,88.5-57.3,130.4-66.2c31.4-6.7,63.5-13.5,99.3-37.5V5727c-37,28.1-69.3,35-103.1,42.2
		C934,5778.3,889.6,5787.8,836.3,5841.1z" />
					<path class="st1" d="M974,5372.1c-8.9,41.9-17.3,81.5-66.5,130.6c-49.1,49.1-88.7,57.5-130.6,66.5c-42.9,9.1-87.3,18.6-140.6,71.9
		c-0.1,0.1-0.1,0.1-0.2,0.2c-0.1,0.1-0.2,0.2-0.3,0.2c-53.3,53.3-62.7,97.7-71.9,140.6c-8.9,41.9-17.3,81.4-66.3,130.4
		c-49,48.9-88.6,57.4-130.4,66.3c-42.9,9.1-87.3,18.6-140.6,71.9c0,0,0,0,0,0c-0.1,0.1-0.2,0.2-0.4,0.3
		c-53.3,53.3-62.7,97.7-71.9,140.6c-8.9,41.9-17.4,81.5-66.5,130.6c-32.3,32.3-60.5,47-88,55.8v20.9c31.3-9.2,64.5-25,102.1-62.6
		c53.3-53.3,62.7-97.7,71.9-140.6c8.9-41.9,17.4-81.5,66.5-130.6c49.1-49.1,88.7-57.5,130.6-66.5c42.9-9.1,87.3-18.6,140.6-71.9
		c0.1-0.1,0.1-0.1,0.2-0.2c0.1-0.1,0.1-0.1,0.2-0.2c53.3-53.3,62.7-97.7,71.9-140.6c8.9-41.9,17.3-81.5,66.3-130.5
		c49-48.9,88.5-57.3,130.4-66.2c42.9-9.1,87.3-18.6,140.6-71.9c0,0,0,0,0,0c0.1-0.1,0.2-0.2,0.4-0.4c53.3-53.3,62.7-97.7,71.9-140.6
		c8.9-41.9,17.3-81.5,66.5-130.6c6.8-6.8,13.5-12.9,20-18.2v-25.3c-11,8-22.3,17.6-34.1,29.4C992.6,5284.8,983.2,5329.2,974,5372.1z
		" />
					<path class="st1" d="M874,5272.1c-8.9,41.9-17.3,81.5-66.5,130.6c-49.1,49.1-88.7,57.5-130.6,66.5c-42.9,9.1-87.3,18.6-140.6,71.9
		c-0.1,0.1-0.1,0.1-0.2,0.2c-0.1,0.1-0.2,0.1-0.2,0.2c-53.3,53.3-62.7,97.7-71.9,140.6c-8.9,41.9-17.3,81.4-66.3,130.4
		c-49,48.9-88.6,57.4-130.4,66.3c-42.9,9.1-87.3,18.6-140.6,71.9c0,0,0,0,0,0c-0.1,0.1-0.2,0.2-0.4,0.3
		c-53.3,53.3-62.7,97.7-71.9,140.6c-8.1,38.2-15.9,74.6-54.4,117.9v29c0.7-0.7,1.4-1.4,2.1-2.1c53.3-53.3,62.7-97.7,71.9-140.6
		c8.9-41.9,17.4-81.5,66.5-130.6c49.1-49.1,88.7-57.5,130.6-66.5c42.9-9.1,87.3-18.6,140.6-71.9c0.1-0.1,0.1-0.1,0.2-0.2
		c0.1-0.1,0.1-0.1,0.2-0.2c53.3-53.3,62.7-97.7,71.9-140.6c8.9-41.9,17.3-81.5,66.3-130.5c49-48.9,88.5-57.3,130.4-66.2
		c42.9-9.1,87.3-18.6,140.6-71.9c0,0,0,0,0,0c0.1-0.1,0.2-0.2,0.4-0.4c53.3-53.3,62.7-97.7,71.9-140.6
		c8.9-41.9,17.3-81.5,66.5-130.6c44.9-44.9,81.9-55.8,120-64.2V5061c-40.9,8.8-83.5,19.9-134.1,70.5
		C892.6,5184.8,883.2,5229.2,874,5272.1z" />
					<path class="st1" d="M897.3,4048.8c-42.9,9.1-87.3,18.6-140.6,71.9c0,0,0,0,0,0c-0.1,0.1-0.2,0.2-0.3,0.3c-0.1,0.1-0.1,0.1-0.2,0.2
		c-0.1,0.1-0.2,0.2-0.3,0.2c-53.3,53.3-62.7,97.7-71.9,140.6c-8.9,41.9-17.3,81.4-66.3,130.4c-49,48.9-88.6,57.4-130.4,66.3
		c-42.9,9.1-87.3,18.6-140.6,71.9c0,0,0,0,0,0c-0.1,0.1-0.2,0.2-0.4,0.3c-53.3,53.3-62.7,97.7-71.9,140.6
		c-8.9,41.9-17.4,81.5-66.5,130.6c-49.1,49.1-88.7,57.5-130.6,66.5c-24.8,5.3-50.1,10.7-77.3,24.5v23.1c28-16.1,53.9-21.6,80.7-27.3
		c42.9-9.1,87.3-18.6,140.6-71.9c0,0,0-0.1,0.1-0.1c0.2-0.2,0.5-0.5,0.7-0.7c53.3-53.3,62.7-97.7,71.9-140.6
		c8.9-41.9,17.4-81.5,66.5-130.6c49.1-49.1,88.7-57.5,130.6-66.5c42.9-9.1,87.3-18.6,140.6-71.9c0.1-0.1,0.1-0.1,0.2-0.2
		c0.1-0.1,0.1-0.1,0.2-0.2c53.3-53.3,62.7-97.7,71.9-140.6c8.9-41.9,17.3-81.5,66.3-130.5c49-48.9,88.5-57.3,130.4-66.2
		c42.9-9.1,87.3-18.6,140.6-71.9c0,0,0,0,0,0c0.1-0.1,0.2-0.2,0.4-0.4c0.1-0.1,0.1-0.1,0.2-0.2s0.1-0.1,0.2-0.2
		c16.3-16.3,28.5-31.8,37.9-46.7v-45.2c-9.1,24.3-23.9,49.6-52.2,78C978.8,4031.5,939.2,4039.9,897.3,4048.8z" />
					<path class="st1" d="M956.7,4320.7c-0.1,0.1-0.2,0.2-0.3,0.3c-0.1,0.1-0.1,0.1-0.2,0.2c-0.1,0.1-0.2,0.2-0.3,0.2
		c-53.3,53.3-62.7,97.7-71.9,140.6c-8.9,41.9-17.3,81.4-66.3,130.4c-49,48.9-88.6,57.4-130.4,66.3c-42.9,9.1-87.3,18.6-140.6,71.9
		c0,0,0,0,0,0c-0.1,0.1-0.2,0.2-0.3,0.3c-53.3,53.3-62.7,97.7-71.9,140.6c-8.9,41.9-17.4,81.5-66.5,130.6
		c-49.1,49.1-88.7,57.5-130.6,66.5c-42.9,9.1-87.3,18.6-140.6,71.9c0,0,0,0.1-0.1,0.1c-0.2,0.2-0.5,0.5-0.7,0.7
		c-53.3,53.3-62.7,97.7-71.9,140.6c-8.8,41.2-17.1,80.2-64,128.2v27.7c3.9-3.5,7.8-7.2,11.7-11.1c53.3-53.3,62.7-97.7,71.9-140.6
		c8.9-41.9,17.3-81.5,66.5-130.6c49.1-49.1,88.7-57.5,130.6-66.5c42.9-9.1,87.3-18.6,140.6-71.9c0,0,0-0.1,0.1-0.1
		c0.2-0.2,0.5-0.5,0.7-0.7c53.3-53.3,62.7-97.7,71.9-140.6c8.9-41.9,17.4-81.5,66.5-130.6c49.1-49.1,88.7-57.5,130.6-66.5
		c42.9-9.1,87.3-18.6,140.6-71.9c0.1-0.1,0.1-0.1,0.2-0.2c0.1-0.1,0.1-0.1,0.2-0.2c53.3-53.3,62.7-97.7,71.9-140.6
		c8.9-41.9,17.3-81.5,66.3-130.5c40.9-40.8,75.2-53.4,109.7-61.6v-21.2C1042.4,4261.3,1002.9,4274.5,956.7,4320.7
		C956.7,4320.7,956.7,4320.7,956.7,4320.7z" />
					<path class="st1" d="M1056.7,4420.7c-0.1,0.1-0.2,0.2-0.3,0.3c-0.1,0.1-0.1,0.1-0.2,0.2c-0.1,0.1-0.2,0.2-0.3,0.2
		c-53.3,53.3-62.7,97.7-71.9,140.6c-8.9,41.9-17.3,81.4-66.3,130.4c-49,48.9-88.6,57.4-130.4,66.3c-42.9,9.1-87.3,18.6-140.6,71.9
		c0,0,0,0,0,0c-0.1,0.1-0.2,0.2-0.3,0.3c-53.3,53.3-62.7,97.7-71.9,140.6c-8.9,41.9-17.4,81.5-66.5,130.6
		c-49.1,49.1-88.7,57.5-130.6,66.5c-42.9,9.1-87.3,18.6-140.6,71.9c0,0,0,0.1-0.1,0.1c-0.2,0.2-0.5,0.5-0.7,0.7
		c-53.3,53.3-62.7,97.7-71.9,140.6c-8.9,41.9-17.3,81.5-66.5,130.6c-36.1,36.1-67,50.2-97.6,58.7v20.7
		c34.2-8.9,70.3-23.8,111.7-65.3c53.3-53.3,62.7-97.7,71.9-140.6c8.9-41.9,17.3-81.5,66.5-130.6c49.1-49.1,88.7-57.5,130.6-66.5
		c42.9-9.1,87.3-18.6,140.6-71.9c0,0,0-0.1,0.1-0.1c0.2-0.2,0.5-0.5,0.7-0.7c53.3-53.3,62.7-97.7,71.9-140.6
		c8.9-41.9,17.4-81.5,66.5-130.6c49.1-49.1,88.7-57.5,130.6-66.5c42.9-9.1,87.3-18.6,140.6-71.9c0.1-0.1,0.1-0.1,0.2-0.2
		c0.1-0.1,0.1-0.1,0.2-0.2c53.3-53.3,62.7-97.7,71.9-140.6c8.9-41.9,17.3-81.5,66.3-130.5c3.3-3.3,6.5-6.4,9.7-9.3v-26.5
		C1072.4,4405.8,1064.7,4412.7,1056.7,4420.7C1056.7,4420.7,1056.7,4420.7,1056.7,4420.7z" />
					<path class="st1" d="M856.7,4220.7C856.7,4220.7,856.7,4220.7,856.7,4220.7c-0.2,0.2-0.3,0.3-0.4,0.4c-0.1,0.1-0.1,0.1-0.2,0.2
		c-0.1,0.1-0.2,0.2-0.3,0.2c-53.3,53.3-62.7,97.7-71.9,140.6c-8.9,41.9-17.3,81.4-66.3,130.4c-49,48.9-88.6,57.4-130.4,66.3
		c-42.9,9.1-87.3,18.6-140.6,71.9c0,0,0,0,0,0c-0.1,0.1-0.2,0.2-0.4,0.3c-53.3,53.3-62.7,97.7-71.9,140.6
		c-8.9,41.9-17.4,81.5-66.5,130.6c-49.1,49.1-88.7,57.5-130.6,66.5c-42.9,9.1-87.3,18.6-140.6,71.9c0,0,0,0.1-0.1,0.1
		c-0.2,0.2-0.5,0.5-0.7,0.7c-15.2,15.2-26.8,29.7-35.9,43.6v42.7c9.3-22.5,23.9-46,50-72.1c49.1-49.1,88.7-57.5,130.6-66.5
		c42.9-9.1,87.3-18.6,140.6-71.9c0,0,0-0.1,0.1-0.1c0.2-0.2,0.5-0.5,0.7-0.7c53.3-53.3,62.7-97.7,71.9-140.6
		c8.9-41.9,17.4-81.5,66.5-130.6c49.1-49.1,88.7-57.5,130.6-66.5c42.9-9.1,87.3-18.6,140.6-71.9c0.1-0.1,0.1-0.1,0.2-0.2
		c0.1-0.1,0.1-0.1,0.2-0.2c53.3-53.3,62.7-97.7,71.9-140.6c8.9-41.9,17.3-81.5,66.3-130.5c49-48.9,88.5-57.3,130.4-66.2
		c25.4-5.4,51.3-10.9,79.3-25.6v-23.2c-28.8,17-55.2,22.6-82.7,28.4C954.4,4158,910,4167.4,856.7,4220.7z" />
					<path class="st1" d="M1066.7,3610.7c-0.1,0.1-0.2,0.2-0.4,0.4c-0.1,0.1-0.1,0.2-0.2,0.2c-0.1,0.1-0.1,0.1-0.2,0.2
		c-53.3,53.3-62.7,97.7-71.9,140.6c-8.9,41.9-17.3,81.4-66.3,130.4c-49,48.9-88.6,57.4-130.4,66.3c-42.9,9.1-87.3,18.6-140.6,71.9
		c0,0,0,0,0,0c-0.1,0.1-0.2,0.2-0.3,0.3c-0.1,0.1-0.1,0.1-0.2,0.2c-0.1,0.1-0.2,0.2-0.3,0.2c-53.3,53.3-62.7,97.7-71.9,140.6
		c-8.9,41.9-17.3,81.4-66.3,130.4c-49,48.9-88.6,57.4-130.4,66.3c-42.9,9.1-87.3,18.6-140.6,71.9c0,0,0,0,0,0
		c-0.1,0.1-0.2,0.2-0.4,0.3c-53.3,53.3-62.7,97.7-71.9,140.6c-8.9,41.9-17.4,81.5-66.5,130.6c-40.2,40.2-74,53.1-108,61.4v21.2
		c37-8.7,76-22.3,121.3-67.6c0,0,0-0.1,0.1-0.1c0.2-0.2,0.5-0.5,0.7-0.7c53.3-53.3,62.7-97.7,71.9-140.6
		c8.9-41.9,17.4-81.5,66.5-130.6c49.1-49.1,88.7-57.5,130.6-66.5c42.9-9.1,87.3-18.6,140.6-71.9c0.1-0.1,0.1-0.1,0.2-0.2
		c0.1-0.1,0.1-0.1,0.2-0.2c53.3-53.3,62.7-97.7,71.9-140.6c8.9-41.9,17.3-81.5,66.3-130.5c49-48.9,88.5-57.3,130.4-66.2
		c42.9-9.1,87.3-18.6,140.6-71.9c0,0,0,0,0,0c0.1-0.1,0.2-0.2,0.4-0.4c0.1-0.1,0.1-0.1,0.2-0.2c0.1-0.1,0.1-0.1,0.2-0.2
		c53.3-53.3,62.7-97.7,71.9-140.6c8.9-41.8,17.3-81.3,66-130.2v-27.6C1075.6,3602,1071.2,3606.2,1066.7,3610.7
		C1066.7,3610.7,1066.7,3610.7,1066.7,3610.7z" />
					<path class="st1" d="M966.7,3510.7c-0.1,0.1-0.2,0.2-0.4,0.4c-0.1,0.1-0.1,0.2-0.2,0.2c-0.1,0.1-0.1,0.1-0.2,0.2
		c-53.3,53.3-62.7,97.7-71.9,140.6c-8.9,41.9-17.3,81.4-66.3,130.5c-49,48.9-88.6,57.3-130.4,66.2c-42.9,9.1-87.3,18.6-140.6,71.9
		c0,0,0,0,0,0c-0.1,0.1-0.2,0.2-0.3,0.3c-0.1,0.1-0.1,0.1-0.2,0.2c-0.1,0.1-0.2,0.2-0.3,0.2c-53.3,53.3-62.7,97.7-71.9,140.6
		c-8.9,41.9-17.3,81.4-66.3,130.4c-49,48.9-88.6,57.4-130.4,66.3c-42.9,9.1-87.3,18.6-140.6,71.9c0,0,0,0,0,0
		c-0.1,0.1-0.2,0.2-0.4,0.3c-53.3,53.3-62.7,97.7-71.9,140.6c-8.9,41.9-17.4,81.5-66.5,130.6c-2.7,2.7-5.3,5.2-8,7.7v26.7
		c6.9-5.7,14-12.2,21.3-19.4c0,0,0-0.1,0.1-0.1c0.2-0.2,0.5-0.5,0.7-0.7c53.3-53.3,62.7-97.7,71.9-140.6
		c8.9-41.9,17.4-81.5,66.5-130.6c49.1-49.1,88.7-57.5,130.6-66.5c42.9-9.1,87.3-18.6,140.6-71.9c0.1-0.1,0.1-0.1,0.2-0.2
		c0.1-0.1,0.1-0.1,0.2-0.2c53.3-53.3,62.7-97.7,71.9-140.6c8.9-41.9,17.3-81.5,66.3-130.5c49-48.9,88.5-57.3,130.4-66.2
		c42.9-9.1,87.3-18.6,140.6-71.9c0,0,0,0,0,0c0.1-0.1,0.2-0.2,0.4-0.4c0.1-0.1,0.1-0.1,0.2-0.2c0.1-0.1,0.1-0.1,0.2-0.2
		c53.3-53.3,62.7-97.7,71.9-140.6c8.9-41.9,17.3-81.4,66.3-130.4c36.9-36.9,68.5-50.7,99.8-59.1V3445
		C1045.3,3453.9,1008.8,3468.6,966.7,3510.7C966.7,3510.7,966.7,3510.7,966.7,3510.7z" />
					<path class="st1" d="M866.7,3410.7C866.7,3410.7,866.7,3410.7,866.7,3410.7c-0.2,0.2-0.3,0.3-0.4,0.4c-0.1,0.1-0.1,0.2-0.2,0.2
		c-0.1,0.1-0.1,0.1-0.2,0.2c-53.3,53.3-62.7,97.7-71.9,140.6c-8.9,41.9-17.3,81.4-66.3,130.4c-49,48.9-88.6,57.3-130.4,66.3
		c-42.9,9.1-87.3,18.6-140.6,71.9c0,0,0,0,0,0c-0.1,0.1-0.2,0.2-0.4,0.4c-0.1,0.1-0.2,0.2-0.3,0.3c0,0-0.1,0.1-0.1,0.1
		c-53.3,53.3-62.7,97.7-71.9,140.6c-8.9,41.9-17.3,81.4-66.3,130.4c-49,48.9-88.6,57.4-130.4,66.3c-42.9,9.1-87.3,18.6-140.6,71.9
		c0,0,0,0,0,0c-0.1,0.1-0.2,0.2-0.4,0.3c-21.8,21.8-36.2,42-46.3,61.3v57c8.3-32.7,21.8-65.5,60.4-104.1
		c49.1-49.1,88.7-57.5,130.6-66.5c42.9-9.1,87.3-18.6,140.6-71.9c0.1-0.1,0.1-0.1,0.2-0.2c0.1-0.1,0.1-0.1,0.2-0.2
		c53.3-53.3,62.7-97.7,71.9-140.6c8.9-41.9,17.3-81.4,66.2-130.4c49-48.9,88.6-57.4,130.5-66.3c42.9-9.1,87.3-18.6,140.6-71.9
		c0,0,0,0,0,0c0.1-0.1,0.2-0.2,0.4-0.4c0.1-0.1,0.1-0.1,0.2-0.2c0.1-0.1,0.1-0.1,0.2-0.2c53.3-53.3,62.7-97.7,71.9-140.6
		c8.9-41.9,17.3-81.4,66.3-130.4c49-48.9,88.6-57.3,130.4-66.3c22.4-4.8,45.1-9.6,69.3-20.7v-22.6c-25,12.8-48.4,17.8-72.7,22.9
		C964.4,3348,920,3357.4,866.7,3410.7z" />
					<path class="st1" d="M907.3,3238.8c-42.9,9.1-87.3,18.6-140.6,71.9c0,0,0,0,0,0c-0.1,0.1-0.2,0.2-0.4,0.4c-0.1,0.1-0.1,0.2-0.2,0.2
		c-0.1,0.1-0.1,0.1-0.2,0.2c-53.3,53.3-62.7,97.7-71.9,140.6c-8.9,41.9-17.3,81.4-66.3,130.4c-49,48.9-88.6,57.3-130.4,66.3
		c-42.9,9.1-87.3,18.6-140.6,71.9c0,0,0,0,0,0c-0.1,0.1-0.2,0.2-0.4,0.4c-0.1,0.1-0.2,0.2-0.3,0.3c0,0-0.1,0.1-0.1,0.1
		c-53.3,53.3-62.7,97.7-71.9,140.6c-8.9,41.9-17.3,81.4-66.3,130.4c-49,48.9-88.6,57.4-130.4,66.3c-27.8,5.9-56.3,12-87.3,30v23.6
		c32.1-21.1,61-27.3,91.1-33.7c42.9-9.1,87.3-18.6,140.6-71.9c0.1-0.1,0.1-0.1,0.2-0.2c0.1-0.1,0.1-0.1,0.2-0.2
		c53.3-53.3,62.7-97.7,71.9-140.6c8.9-41.9,17.3-81.4,66.2-130.4c49-48.9,88.6-57.4,130.5-66.3c42.9-9.1,87.3-18.6,140.6-71.9
		c0,0,0,0,0,0c0.1-0.1,0.2-0.2,0.4-0.4c0.1-0.1,0.1-0.1,0.2-0.2c0.1-0.1,0.1-0.1,0.2-0.2c53.3-53.3,62.7-97.7,71.9-140.6
		c8.9-41.9,17.3-81.4,66.3-130.4c49-48.9,88.6-57.3,130.4-66.3c42.9-9.1,87.3-18.6,140.6-71.9c0,0,0,0,0,0c0.1-0.1,0.2-0.2,0.4-0.4
		c0.1-0.1,0.1-0.1,0.2-0.2c0.1-0.1,0.1-0.1,0.2-0.2c11.1-11.1,20.2-21.7,27.9-32.1v-37.5c-9.3,17.5-22.4,35.8-42.2,55.7
		C988.8,3221.5,949.2,3229.9,907.3,3238.8z" />
					<path class="st1"
						d="M1076.7,2800.7c-0.1,0.1-0.2,0.2-0.4,0.4c-0.1,0.1-0.1,0.2-0.2,0.2c-0.1,0.1-0.1,0.1-0.2,0.2
		c-53.3,53.3-62.7,97.7-71.9,140.6c-8.9,41.9-17.3,81.4-66.3,130.4c-49,48.9-88.6,57.3-130.4,66.3c-42.9,9.1-87.3,18.6-140.6,71.9
		c0,0,0,0,0,0c-0.1,0.1-0.2,0.2-0.4,0.4c-0.1,0.1-0.1,0.2-0.2,0.2c-0.1,0.1-0.1,0.1-0.2,0.2c-53.3,53.3-62.7,97.7-71.9,140.6
		c-8.9,41.9-17.3,81.4-66.3,130.5c-49,48.9-88.6,57.3-130.4,66.2c-42.9,9.1-87.3,18.6-140.6,71.9c0,0,0,0,0,0
		c-0.1,0.1-0.2,0.2-0.4,0.4c-0.1,0.1-0.2,0.2-0.3,0.3c0,0-0.1,0.1-0.1,0.1c-53.3,53.3-62.7,97.7-71.9,140.6
		c-8.9,41.9-17.3,81.4-66.3,130.4c-44,44-80.5,55.2-117.8,63.5v20.8c40.2-8.7,82.1-20.3,131.7-70c0.1-0.1,0.1-0.1,0.2-0.2
		c0.1-0.1,0.1-0.1,0.2-0.2c53.3-53.3,62.7-97.7,71.9-140.6c8.9-41.9,17.3-81.4,66.2-130.4c49-48.9,88.6-57.4,130.5-66.3
		c42.9-9.1,87.3-18.6,140.6-71.9c0,0,0,0,0,0c0.1-0.1,0.2-0.2,0.4-0.4c0.1-0.1,0.1-0.1,0.2-0.2c0.1-0.1,0.1-0.1,0.2-0.2
		c53.3-53.3,62.7-97.7,71.9-140.6c8.9-41.9,17.3-81.4,66.3-130.4c49-48.9,88.6-57.3,130.4-66.3c42.9-9.1,87.3-18.6,140.6-71.9
		c0,0,0,0,0,0c0.1-0.1,0.2-0.2,0.4-0.4c0.1-0.1,0.1-0.1,0.2-0.2c0.1-0.1,0.1-0.1,0.2-0.2c53.3-53.3,62.7-97.7,71.9-140.6
		c8.2-38.8,16.1-75.5,56-119.7v-28.8C1078.9,2798.5,1077.8,2799.6,1076.7,2800.7C1076.7,2800.7,1076.7,2800.7,1076.7,2800.7z" />
					<path class="st1" d="M1007.6,5602.8c-49.1,49.1-88.7,57.5-130.6,66.5c-42.9,9.1-87.3,18.6-140.6,71.9c-0.1,0.1-0.1,0.1-0.2,0.2
		c-0.1,0.1-0.2,0.2-0.3,0.2c-53.3,53.3-62.7,97.7-71.9,140.6c-8.9,41.9-17.3,81.4-66.3,130.4c-49,48.9-88.6,57.4-130.4,66.3
		c-42.9,9.1-87.3,18.6-140.6,71.9c0,0,0,0,0,0c-0.1,0.1-0.2,0.2-0.4,0.3c-0.1,0.1-0.1,0.1-0.2,0.2c-0.1,0.1-0.1,0.1-0.2,0.2
		c-53.3,53.3-62.7,97.7-71.9,140.6c-8.9,41.9-17.3,81.4-66.3,130.4c-49,48.9-88.6,57.4-130.4,66.3c-18.6,4-37.5,8-57.3,15.6v21.8
		c20.7-8.9,40.6-13.1,61.1-17.5c42.9-9.1,87.3-18.6,140.6-71.9c0.1-0.1,0.1-0.1,0.2-0.2c0.1-0.1,0.1-0.1,0.2-0.2
		c53.3-53.3,62.7-97.7,71.9-140.6c8.9-41.9,17.3-81.4,66.3-130.5c49-48.9,88.5-57.3,130.4-66.2c42.9-9.1,87.3-18.6,140.6-71.9
		c0,0,0,0,0,0c0.1-0.1,0.2-0.2,0.4-0.4c0.1-0.1,0.1-0.1,0.2-0.2c0.1-0.1,0.1-0.1,0.2-0.2c53.3-53.3,62.7-97.7,71.9-140.6
		c8.9-41.9,17.3-81.5,66.3-130.5c49-48.9,88.5-57.3,130.4-66.2c42.9-9.1,87.3-18.6,140.6-71.9c0,0,0,0,0,0c0.1-0.1,0.2-0.2,0.4-0.4
		c32.3-32.3,48.5-61.4,58.3-88.8v-82.4c-2.2,8.9-4.1,17.7-6,26.4C1065.1,5514,1056.7,5553.7,1007.6,5602.8z" />
					<path class="st1" d="M916.3,7561.1c-0.1,0.1-0.1,0.1-0.2,0.2c-0.1,0.1-0.2,0.2-0.3,0.2c-44.2,44.2-58.2,82.3-67,118.5h20.9
		c8.3-32.8,21.6-65.8,60.5-104.6c49-48.9,88.5-57.3,130.4-66.2c6.4-1.4,12.8-2.7,19.3-4.3v-20.9c-7.7,1.9-15.3,3.5-23.1,5.2
		C1014,7498.3,969.6,7507.8,916.3,7561.1z" />
					<path class="st1" d="M998.8,7680h27c1.4-1.4,2.8-2.9,4.3-4.4c17.7-17.7,34.2-30.1,50-39.2v-22.7c-20.1,10.2-41.3,24.9-64.1,47.7
		C1009.6,7667.8,1003.9,7673.9,998.8,7680z" />
					<path class="st1" d="M816.3,7461.1c-0.1,0.1-0.1,0.1-0.2,0.2c-0.1,0.1-0.2,0.2-0.3,0.2c-53.3,53.3-62.7,97.7-71.9,140.6
		c-5.5,25.9-10.8,51-25.7,77.9H741c12.7-26,17.9-50.3,23-74.1c8.9-41.9,17.3-81.5,66.3-130.5c49-48.9,88.5-57.3,130.4-66.2
		c37.1-7.9,75.3-16,119.3-52.4v-26.7c-45.7,42.7-83.3,50.7-123.1,59.1C914,7398.3,869.6,7407.8,816.3,7461.1z" />
					<path class="st1" d="M987.6,7222.8c-49.1,49.1-88.7,57.5-130.6,66.5c-42.9,9.1-87.3,18.6-140.6,71.9c-0.1,0.1-0.1,0.1-0.2,0.2
		c-0.1,0.1-0.2,0.2-0.3,0.2c-53.3,53.3-62.7,97.7-71.9,140.6c-8.9,41.9-17.3,81.4-66.3,130.4c-23.9,23.9-45.6,38.1-66.3,47.4h40.9
		c12.6-8.6,25.7-19.4,39.4-33.1c0.1-0.1,0.1-0.1,0.2-0.2c0.1-0.1,0.1-0.1,0.2-0.2c53.3-53.3,62.7-97.7,71.9-140.6
		c8.9-41.9,17.3-81.5,66.3-130.5c49-48.9,88.5-57.3,130.4-66.2c42.9-9.1,87.3-18.6,140.6-71.9c0,0,0,0,0,0c0.1-0.1,0.2-0.2,0.4-0.4
		c53.3-53.3,62.7-97.7,71.9-140.6c2-9.4,4-18.7,6.4-28.1V7012c-14.9,28.3-20.5,54.4-26,80.1C1045.1,7134,1036.7,7173.7,987.6,7222.8
		z" />
					<path class="st1" d="M926.7,6750.7C926.7,6750.7,926.7,6750.7,926.7,6750.7c-0.2,0.2-0.3,0.3-0.4,0.4c-0.1,0.1-0.1,0.1-0.2,0.2
		c-0.1,0.1-0.2,0.2-0.3,0.2c-53.3,53.3-62.7,97.7-71.9,140.6c-8.9,41.9-17.3,81.4-66.3,130.4c-49,48.9-88.6,57.4-130.4,66.3
		c-42.9,9.1-87.3,18.6-140.6,71.9c0,0,0,0,0,0c-0.1,0.1-0.2,0.2-0.4,0.3c-0.1,0.1-0.1,0.1-0.2,0.2c-0.1,0.1-0.1,0.1-0.2,0.2
		c-53.3,53.3-62.7,97.7-71.9,140.6c-8.9,41.9-17.3,81.4-66.3,130.4c-49,48.9-88.6,57.4-130.4,66.3c-42.9,9.1-87.3,18.6-140.6,71.9
		c0,0,0,0,0,0c-0.1,0.1-0.2,0.2-0.4,0.3c-40.3,40.3-55.5,75.6-64.5,108.9h20.8c8.6-29.6,22.9-59.8,57.9-94.8
		c49.1-49.1,88.7-57.5,130.6-66.5c42.9-9.1,87.3-18.6,140.6-71.9c0.1-0.1,0.1-0.1,0.2-0.2c0.1-0.1,0.1-0.1,0.2-0.2
		c53.3-53.3,62.7-97.7,71.9-140.6c8.9-41.9,17.3-81.4,66.3-130.5c49-48.9,88.5-57.3,130.4-66.2c42.9-9.1,87.3-18.6,140.6-71.9
		c0,0,0,0,0,0c0.1-0.1,0.2-0.2,0.4-0.4c0.1-0.1,0.1-0.1,0.2-0.2c0.1-0.1,0.1-0.1,0.2-0.2c53.3-53.3,62.7-97.7,71.9-140.6
		c8.9-41.9,17.3-81.5,66.3-130.5c49-48.9,88.5-57.3,130.4-66.2c3.1-0.7,6.2-1.3,9.3-2v-21.1c-4.2,0.9-8.4,1.8-12.7,2.7
		C1024.4,6688,980,6697.4,926.7,6750.7z" />
					<path class="st1" d="M826.7,6650.7C826.7,6650.7,826.7,6650.7,826.7,6650.7c-0.2,0.2-0.3,0.3-0.4,0.4c-0.1,0.1-0.1,0.1-0.2,0.2
		c-0.1,0.1-0.2,0.2-0.3,0.2c-53.3,53.3-62.7,97.7-71.9,140.6c-8.9,41.9-17.3,81.4-66.3,130.4c-49,48.9-88.6,57.4-130.4,66.3
		c-42.9,9.1-87.3,18.6-140.6,71.9c0,0,0,0,0,0c-0.1,0.1-0.2,0.2-0.4,0.3c-0.1,0.1-0.1,0.1-0.2,0.2c-0.1,0.1-0.1,0.1-0.2,0.2
		c-53.3,53.3-62.7,97.7-71.9,140.6c-8.9,41.9-17.3,81.4-66.3,130.4c-49,48.9-88.6,57.4-130.4,66.3c-42.9,9.1-87.3,18.6-140.6,71.9
		c0,0,0,0,0,0c-0.1,0.1-0.2,0.2-0.4,0.3c-2.2,2.2-4.3,4.3-6.3,6.5v30.3c5.9-7.4,12.7-14.9,20.4-22.7c49.1-49.1,88.7-57.5,130.6-66.5
		c42.9-9.1,87.3-18.6,140.6-71.9c0.1-0.1,0.1-0.1,0.2-0.2c0.1-0.1,0.1-0.1,0.2-0.2c53.3-53.3,62.7-97.7,71.9-140.6
		c8.9-41.9,17.3-81.4,66.3-130.5c49-48.9,88.5-57.3,130.4-66.2c42.9-9.1,87.3-18.6,140.6-71.9c0,0,0,0,0,0c0.1-0.1,0.2-0.2,0.4-0.4
		c0.1-0.1,0.1-0.1,0.2-0.2c0.1-0.1,0.1-0.1,0.2-0.2c53.3-53.3,62.7-97.7,71.9-140.6c8.9-41.9,17.3-81.5,66.3-130.5
		c49-48.9,88.5-57.3,130.4-66.2c34.3-7.3,69.4-14.8,109.3-44.6v-25.7c-41.1,34.7-76,42.1-112.7,49.9
		C924.4,6588,880,6597.4,826.7,6650.7z" />
				</g>
			</svg>