<svg version="1.1" xmlns="http://www.w3.org/2000/svg" xmlns:xlink="http://www.w3.org/1999/xlink" x="0px" y="0px"
				viewBox="0 0 1080 7680" style="enable-background:new 0 0 1080 7680;" xml:space="preserve">
				<style type="text/css">
				.st0{ fill: hsl(60deg 1% 16%); }
				</style>
				<g>
					<path class="st0" d="M180.9,162.7c56.4,56.4,105.1,66.8,148.1,75.9c41.4,8.8,77.2,16.4,123.2,62.4c46,46,53.6,81.7,62.4,123.2
		c9.1,43,19.5,91.7,75.9,148.1c56.4,56.4,105.1,66.8,148.1,75.9c41.4,8.8,77.1,16.4,123.1,62.3c45.9,45.9,53.5,81.7,62.3,123.1
		c9.1,43,19.5,91.7,75.9,148.1c0,0,0.1,0.1,0.1,0.1s0.1,0.1,0.1,0.1c0,0,0,0,0.1,0.1c28.5,28.4,55,45.1,79.9,55.9V982
		c-14.1-8.3-28.8-19.6-44.7-35.5c-45.9-45.9-53.5-81.7-62.3-123.1c-9.1-43-19.5-91.7-75.9-148.1c0,0-0.1-0.1-0.1-0.1
		c0,0-0.1-0.1-0.1-0.1c0,0,0,0-0.1-0.1c-56.3-56.2-105-66.6-147.9-75.7c-41.4-8.8-77.2-16.4-123.2-62.4c-46-46-53.6-81.7-62.4-123.2
		c-9.1-43-19.5-91.7-75.9-148.1c-56.4-56.4-105.1-66.8-148.1-75.9c-41.4-8.8-77.2-16.4-123.2-62.4c-46-46-53.6-81.7-62.4-123.2
		c-0.3-1.4-0.6-2.8-0.9-4.2h-51.2c1.1,4.8,2.1,9.7,3.2,14.6C114.1,57.6,124.5,106.3,180.9,162.7z" />
					<path class="st0" d="M652.1,101c46,46,53.6,81.7,62.4,123.2c9.1,43,19.5,91.7,75.9,148.1c56.4,56.4,105.1,66.8,148.1,75.9
		c41.4,8.8,77.1,16.4,123.1,62.3c7,7,13,13.7,18.3,20.2v-71.4c-49.2-42.6-92.4-51.8-131-60c-41.4-8.8-77.2-16.4-123.2-62.4
		c-46-46-53.6-81.7-62.4-123.2c-9.1-43-19.5-91.7-75.9-148.1C648.7,26.8,613.5,9.8,581.3,0H426.1c37.8,24.8,71.8,32,102.9,38.6
		C570.4,47.5,606.2,55.1,652.1,101z" />
					<path class="st0" d="M814.5,124.2c9.1,43,19.5,91.7,75.9,148.1c56.4,56.4,105.1,66.8,148.1,75.9c14.3,3,27.8,5.9,41.4,10.3v-52
		c-10.7-2.8-21-5-31-7.2c-41.4-8.8-77.2-16.4-123.2-62.4c-46-46-53.6-81.7-62.4-123.2c-7.2-34-15.2-71.6-46.2-113.8h-66.1
		c0.4,0.4,0.7,0.7,1.1,1C798.1,47,805.7,82.8,814.5,124.2z" />
					<path class="st0" d="M990.5,172.3c32.2,32.2,62,49.4,89.5,60v-54.5c-17-8.7-34.7-21.3-54.2-40.8c-46-46-53.6-81.7-62.4-123.2
		c-1-4.5-1.9-9.1-3-13.8h-51.4c2,7.9,3.7,15.9,5.4,24.2C923.7,67.2,934,115.9,990.5,172.3z" />
					<path class="st0" d="M1080,0h-42.1c9.3,19.4,22.4,39.8,42.1,61.3V0z" />
					<path class="st0" d="M429,138.6c41.4,8.8,77.2,16.4,123.2,62.4c46,46,53.6,81.7,62.4,123.2c9.1,43,19.5,91.7,75.9,148.1
		c56.4,56.4,105.1,66.8,148.1,75.9c41.4,8.8,77.1,16.4,123.1,62.3c45.9,45.9,53.5,81.7,62.3,123.1c7.9,37.3,16.8,79,56.1,126.3
		V753.4c-2.6-9.8-4.8-19.8-7-30.1c-9.1-43-19.5-91.7-75.9-148.1c0,0-0.1-0.1-0.1-0.1c0,0-0.1-0.1-0.1-0.1c0,0,0,0-0.1-0.1
		c-56.3-56.2-105-66.6-147.9-75.7c-41.4-8.8-77.2-16.4-123.2-62.4c-46-46-53.6-81.7-62.4-123.2c-9.1-43-19.5-91.7-75.9-148.1
		c-56.4-56.4-105.1-66.8-148.1-75.9c-41.4-8.8-77.2-16.4-123.2-62.4c-9.5-9.5-17.4-18.6-23.9-27.4h-59.1
		c10.7,19.8,25.7,40.7,47.7,62.7C337.3,119.1,386,129.5,429,138.6z" />
					<path class="st0" d="M4.9,114.6c9.1,43,19.5,91.7,75.9,148.1c56.4,56.4,105.1,66.8,148.1,75.9c41.4,8.8,77.2,16.4,123.2,62.4
		c46,46,53.6,81.7,62.4,123.2c9.1,43,19.5,91.7,75.9,148.1c56.4,56.4,105.1,66.8,148.1,75.9c41.4,8.8,77.1,16.4,123.1,62.3
		c45.9,45.9,53.5,81.7,62.3,123.1c9.1,43,19.5,91.7,75.9,148.1c0,0,0.1,0.1,0.1,0.1s0.1,0.1,0.1,0.1c0,0,0,0,0.1,0.1
		c56.3,56.2,104.9,66.6,147.8,75.7c11,2.3,21.5,4.6,32,7.5v-51.6c-7.4-1.8-14.6-3.3-21.6-4.8c-41.4-8.8-77.1-16.4-123.1-62.3
		c-45.9-45.9-53.5-81.7-62.3-123.1c-9.1-43-19.5-91.7-75.9-148.1c0,0-0.1-0.1-0.1-0.1c0,0-0.1-0.1-0.1-0.1c0,0,0,0-0.1-0.1
		c-56.3-56.2-105-66.6-147.9-75.7c-41.4-8.8-77.2-16.4-123.2-62.4c-46-46-53.6-81.7-62.4-123.2c-9.1-43-19.5-91.7-75.9-148.1
		c-56.4-56.4-105.1-66.8-148.1-75.9c-41.4-8.8-77.2-16.4-123.2-62.4c-46-46-53.6-81.7-62.4-123.2C47.2,72.8,39.8,38.3,14.3,0H0v92.4
		C1.8,99.7,3.3,107,4.9,114.6z" />
					<path class="st0" d="M835.3,1146.5c-45.9-45.9-53.5-81.7-62.3-123.1c-9.1-43-19.5-91.7-75.9-148.1c0,0-0.1-0.1-0.1-0.1
		c0,0-0.1-0.1-0.1-0.1c0,0,0,0-0.1-0.1c-56.3-56.2-105-66.6-147.9-75.7c-41.4-8.8-77.2-16.4-123.2-62.4c-46-46-53.6-81.7-62.4-123.2
		c-9.1-43-19.5-91.7-75.9-148.1c-56.4-56.4-105.1-66.8-148.1-75.9c-41.4-8.8-77.2-16.4-123.2-62.4c-6.1-6.1-11.4-11.9-16.2-17.7
		v70.7c48.4,41.1,90.9,50.2,129,58.3c41.4,8.8,77.2,16.4,123.2,62.4c46,46,53.6,81.7,62.4,123.2c9.1,43,19.5,91.7,75.9,148.1
		c56.4,56.4,105.1,66.8,148.1,75.9c41.4,8.8,77.1,16.4,123.1,62.3c45.9,45.9,53.5,81.7,62.3,123.1c9.1,43,19.5,91.7,75.9,148.1
		c0,0,0.1,0.1,0.1,0.1s0.1,0.1,0.1,0.1c0,0,0,0,0.1,0.1c56.3,56.2,104.9,66.6,147.8,75.7c41.4,8.8,77.2,16.4,123.2,62.4
		c3.1,3.1,6.1,6.2,8.9,9.2V1261c-45.4-36-85.5-44.5-121.6-52.2C917,1199.9,881.3,1192.3,835.3,1146.5z" />
					<path class="st0" d="M1006.8,1385c-0.1-0.1-0.2-0.2-0.3-0.3c-56.4-56.4-105.1-66.8-148.1-75.9c-41.4-8.8-77.1-16.4-123.1-62.3
		c-45.9-45.9-53.5-81.7-62.3-123.1c-9.1-43-19.5-91.7-75.9-148.1c0,0-0.1-0.1-0.1-0.1c0,0-0.1-0.1-0.1-0.1c0,0,0,0-0.1-0.1
		c-56.3-56.2-105-66.6-147.9-75.7c-41.4-8.8-77.2-16.4-123.2-62.4c-46-46-53.6-81.7-62.4-123.2c-9.1-43-19.5-91.7-75.9-148.1
		c-56.4-56.4-105.1-66.8-148.1-75.9c-13.6-2.9-26.5-5.6-39.4-9.7V532c10,2.6,19.6,4.6,29,6.6c41.4,8.8,77.2,16.4,123.2,62.4
		c46,46,53.6,81.7,62.4,123.2c9.1,43,19.5,91.7,75.9,148.1c56.4,56.4,105.1,66.8,148.1,75.9c41.4,8.8,77.1,16.4,123.1,62.3
		c45.9,45.9,53.5,81.7,62.3,123.1c9.1,43,19.5,91.7,75.9,148.1c0,0,0.1,0.1,0.1,0.1s0.1,0.1,0.1,0.1c0,0,0,0,0.1,0.1
		c56.3,56.2,104.9,66.6,147.8,75.7c41.4,8.8,77.2,16.4,123.2,62.4c46,46,53.6,81.7,62.4,123.2c7.3,34.1,15.3,71.8,46.5,114.1V1520
		C1071.1,1480.3,1057.7,1435.8,1006.8,1385C1006.9,1385.1,1006.9,1385,1006.8,1385z" />
					<path class="st0" d="M982.9,1633.2c-9.1-43-19.5-91.7-75.9-148.1c0,0,0,0-0.1-0.1c-0.1-0.1-0.2-0.2-0.3-0.3
		c-56.4-56.4-105.1-66.8-148.1-75.9c-41.4-8.8-77.1-16.4-123.1-62.3c-45.9-45.9-53.5-81.7-62.3-123.1c-9.1-43-19.5-91.7-75.9-148.1
		c0,0-0.1-0.1-0.1-0.1c0,0,0,0-0.1-0.1c0,0,0,0,0,0c-56.3-56.2-105-66.6-147.9-75.7c-41.4-8.8-77.2-16.4-123.2-62.4
		c-46-46-53.6-81.7-62.4-123.2c-9.1-43-19.5-91.7-75.9-148.1C56,634.2,27,617.1,0,606.5v54.8c16.4,8.7,33.4,21,52.1,39.7
		c46,46,53.6,81.7,62.4,123.2c9.1,43,19.5,91.7,75.9,148.1c56.4,56.4,105.1,66.8,148.1,75.9c41.4,8.8,77.1,16.4,123.1,62.3
		c45.9,45.9,53.5,81.7,62.3,123.1c9.1,43,19.5,91.7,75.9,148.1c0,0,0.1,0.1,0.1,0.1s0.1,0.1,0.1,0.1c0,0,0,0,0.1,0.1
		c56.3,56.2,104.9,66.6,147.8,75.7c41.4,8.8,77.2,16.4,123.2,62.4c46,46,53.6,81.7,62.4,123.2c9.1,43,19.5,91.7,75.9,148.1
		c0.1,0.1,0.1,0.1,0.2,0.2c0.1,0.1,0.1,0.2,0.2,0.2c24.8,24.8,48.1,40.7,70.1,51.5v-57.8c-11.1-7.5-22.7-17-35-29.3
		C999.3,1710.3,991.6,1674.5,982.9,1633.2z" />
					<path class="st0" d="M854.8,2765.9c-46-46-53.6-81.7-62.4-123.2c-9.1-43-19.5-91.7-75.9-148.1c-0.1-0.1-0.1-0.1-0.2-0.2
		c-0.1-0.1-0.1-0.1-0.2-0.2c-56.4-56.4-105.1-66.8-148.1-75.9c-41.4-8.8-77.1-16.4-122.9-62.2c-45.8-45.9-53.4-81.6-62.2-123
		c-9.1-43-19.5-91.7-75.9-148.1c0,0,0,0-0.1-0.1c-0.1-0.1-0.2-0.2-0.3-0.3c-56.4-56.4-105.1-66.8-148.1-75.9
		c-41.4-8.8-77.1-16.4-123.1-62.3c-15.8-15.8-27-30.4-35.3-44.4v79.8c0,0,0.1,0.1,0.1,0.1c0,0,0,0,0.1,0.1
		c56.3,56.2,104.9,66.6,147.8,75.7c41.4,8.8,77.2,16.4,123.2,62.4c46,46,53.6,81.7,62.4,123.2c9.1,43,19.5,91.7,75.9,148.1
		c0.1,0.1,0.2,0.1,0.2,0.2c0.1,0.1,0.1,0.1,0.2,0.2c56.4,56.4,105.1,66.8,148.1,75.9c41.4,8.8,77.1,16.4,123,62.2
		c45.8,45.9,53.4,81.6,62.2,123c9.1,43,19.5,91.7,75.9,148.1c0,0,0.1,0,0.1,0.1c0.1,0.1,0.2,0.2,0.3,0.3
		c56.4,56.4,105.1,66.8,148.1,75.9c38.1,8.1,71.5,15.2,112.4,52.2v-63c-37.4-24.3-71.2-31.5-102-38.1
		C936.6,2819.5,900.8,2811.9,854.8,2765.9z" />
					<path class="st0" d="M992.4,2442.8c-9.1-43-19.5-91.7-75.9-148.1c-0.1-0.1-0.1-0.1-0.2-0.2c-0.1-0.1-0.1-0.1-0.2-0.2
		c-56.4-56.4-105.1-66.8-148.1-75.9c-41.4-8.8-77.1-16.4-123-62.2c-45.8-45.9-53.4-81.6-62.2-122.9c-9.1-43-19.5-91.7-75.9-148.1
		c0,0,0,0-0.1-0.1c-0.1-0.1-0.2-0.2-0.3-0.3c-56.4-56.4-105.1-66.8-148.1-75.9c-41.4-8.8-77.1-16.4-123.1-62.3
		c-45.9-45.9-53.5-81.7-62.3-123.1c-9.1-43-19.5-91.7-75.9-148.1c0,0-0.1-0.1-0.1-0.1c0,0,0,0-0.1-0.1c0,0,0,0,0,0
		c-35.1-35.1-67.3-52.3-96.9-62.5v53.7c19.4,8.7,39.3,22,61.6,44.3c45.9,45.9,53.5,81.7,62.3,123.1c9.1,43,19.5,91.7,75.9,148.1
		c0,0,0.1,0.1,0.1,0.1s0.1,0.1,0.1,0.1c0,0,0,0,0.1,0.1c56.3,56.2,104.9,66.6,147.8,75.7c41.4,8.8,77.2,16.4,123.2,62.4
		c46,46,53.6,81.7,62.4,123.2c9.1,43,19.5,91.7,75.9,148.1c0.1,0.1,0.1,0.1,0.2,0.2c0.1,0.1,0.1,0.2,0.2,0.2
		c56.4,56.4,105.1,66.8,148.1,75.9c41.4,8.8,77.1,16.4,123,62.2c45.8,45.9,53.4,81.6,62.2,123c9.1,43,19.5,91.7,75.9,148.1
		c0,0,0.1,0,0.1,0.1c0.1,0.1,0.2,0.2,0.3,0.3c21.2,21.2,41.4,35.9,60.5,46.5v-59.6c-8.1-6.2-16.4-13.6-25.2-22.3
		C1008.9,2520,1001.3,2484.2,992.4,2442.8z" />
					<path class="st0" d="M1016.3,2194.5c-0.1-0.1-0.1-0.1-0.2-0.2c-56.4-56.4-105.1-66.8-148.1-75.9c-41.4-8.8-77.1-16.4-123-62.2
		c-45.8-45.9-53.4-81.6-62.2-122.9c-9.1-43-19.5-91.7-75.9-148.1c0,0,0,0-0.1-0.1c-0.1-0.1-0.2-0.2-0.3-0.3
		c-56.4-56.4-105.1-66.8-148.1-75.9c-41.4-8.8-77.1-16.4-123.1-62.3c-45.9-45.9-53.5-81.7-62.3-123.1c-9.1-43-19.5-91.7-75.9-148.1
		c0,0-0.1-0.1-0.1-0.1c0,0,0,0-0.1-0.1c0,0,0,0,0,0c-56.3-56.2-105-66.6-147.9-75.7c-16.9-3.6-32.9-7-49-12.9v52.5
		c13.4,3.9,26.2,6.6,38.6,9.3c41.4,8.8,77.1,16.4,123.1,62.3c45.9,45.9,53.5,81.7,62.3,123.1c9.1,43,19.5,91.7,75.9,148.1
		c0,0,0.1,0.1,0.1,0.1s0.1,0.1,0.1,0.1c0,0,0,0,0.1,0.1c56.3,56.2,104.9,66.6,147.8,75.7c41.4,8.8,77.2,16.4,123.2,62.4
		c46,46,53.6,81.7,62.4,123.2c9.1,43,19.5,91.7,75.9,148.1c0.1,0.1,0.1,0.1,0.2,0.2c0.1,0.1,0.1,0.2,0.2,0.2
		c56.4,56.4,105.1,66.8,148.1,75.9c41.4,8.8,77.1,16.4,123,62.2c45.8,45.9,53.4,81.6,62.2,123c6.4,30.3,13.5,63.4,36.9,100.1v-158.8
		c-10.1-30.3-27.4-63.3-63.5-99.4C1016.4,2194.6,1016.4,2194.5,1016.3,2194.5z" />
					<path class="st0" d="M845,1956.1c-45.8-45.9-53.4-81.6-62.2-122.9c-9.1-43-19.5-91.7-75.9-148.1c0,0,0,0-0.1-0.1
		c-0.1-0.1-0.2-0.2-0.3-0.3c-56.4-56.4-105.1-66.8-148.1-75.9c-41.4-8.8-77.1-16.4-123.1-62.3c-45.9-45.9-53.5-81.7-62.3-123.1
		c-9.1-43-19.5-91.7-75.9-148.1c0,0-0.1-0.1-0.1-0.1c0,0,0,0-0.1-0.1c0,0,0,0,0,0c-56.3-56.2-105-66.6-147.9-75.7
		c-41.4-8.8-77.2-16.4-123.2-62.4C15.4,1126.5,6.9,1116.6,0,1107v74.4c52.4,48.4,98.1,58.2,138.6,66.8
		c41.4,8.8,77.1,16.4,123.1,62.3c45.9,45.9,53.5,81.7,62.3,123.1c9.1,43,19.5,91.7,75.9,148.1c0,0,0.1,0.1,0.1,0.1s0.1,0.1,0.1,0.1
		c0,0,0,0,0.1,0.1c56.3,56.2,104.9,66.6,147.8,75.7c41.4,8.8,77.2,16.4,123.2,62.4c46,46,53.6,81.7,62.4,123.2
		c9.1,43,19.5,91.7,75.9,148.1c0.1,0.1,0.1,0.1,0.2,0.2c0.1,0.1,0.1,0.2,0.2,0.2c56.4,56.4,105.1,66.8,148.1,75.9
		c41.1,8.7,76.6,16.3,122,61.3v-65.6c-41.5-29.9-78.5-37.8-112-44.9C926.6,2009.5,890.9,2001.9,845,1956.1z" />
					<path class="st0" d="M945,1856.1c-45.8-45.9-53.4-81.6-62.2-122.9c-9.1-43-19.5-91.7-75.9-148.1c0,0,0,0-0.1-0.1
		c-0.1-0.1-0.2-0.2-0.3-0.3c-56.4-56.4-105.1-66.8-148.1-75.9c-41.4-8.8-77.1-16.4-123.1-62.3c-45.9-45.9-53.5-81.7-62.3-123.1
		c-9.1-43-19.5-91.7-75.9-148.1c0,0-0.1-0.1-0.1-0.1c0,0,0,0-0.1-0.1c0,0,0,0,0,0c-56.3-56.2-105-66.6-147.9-75.7
		c-41.4-8.8-77.2-16.4-123.2-62.4c-46-46-53.6-81.7-62.4-123.2C55,874.2,45.6,829.7,0,778.9v92c6.9,17.6,10.6,34.9,14.5,53.3
		c9.1,43,19.5,91.7,75.9,148.1c56.4,56.4,105.1,66.8,148.1,75.9c41.4,8.8,77.1,16.4,123.1,62.3c45.9,45.9,53.5,81.7,62.3,123.1
		c9.1,43,19.5,91.7,75.9,148.1c0,0,0.1,0.1,0.1,0.1s0.1,0.1,0.1,0.1c0,0,0,0,0.1,0.1c56.3,56.2,104.9,66.6,147.8,75.7
		c41.4,8.8,77.2,16.4,123.2,62.4c46,46,53.6,81.7,62.4,123.2c9.1,43,19.5,91.7,75.9,148.1c0.1,0.1,0.1,0.1,0.2,0.2
		c0.1,0.1,0.1,0.2,0.2,0.2c56.4,56.4,105.1,66.8,148.1,75.9c7.5,1.6,14.8,3.2,22,4.9v-51.6c-4.1-0.9-8.1-1.7-12-2.6
		C1026.6,1909.5,990.9,1901.9,945,1856.1z" />
					<path class="st0" d="M954.8,2665.9c-46-46-53.6-81.7-62.4-123.2c-9.1-43-19.5-91.7-75.9-148.1c-0.1-0.1-0.1-0.1-0.2-0.2
		c-0.1-0.1-0.1-0.1-0.2-0.2c-56.4-56.4-105.1-66.8-148.1-75.9c-41.3-8.8-77.1-16.4-122.9-62.2c-45.8-45.9-53.4-81.6-62.2-123
		c-9.1-43-19.5-91.7-75.9-148.1c0,0,0,0-0.1-0.1c-0.1-0.1-0.2-0.2-0.3-0.3c-56.4-56.4-105.1-66.8-148.1-75.9
		c-41.4-8.8-77.1-16.4-123.1-62.3c-45.9-45.9-53.5-81.7-62.3-123.1c-9-42.2-19.2-90-73-145.2v82c13.6,24.8,18.5,48,23.9,73.4
		c9.1,43,19.5,91.7,75.9,148.1c0,0,0.1,0.1,0.1,0.1s0.1,0.1,0.1,0.1c0,0,0,0,0.1,0.1c56.3,56.2,104.9,66.6,147.8,75.7
		c41.4,8.8,77.2,16.4,123.2,62.4c46,46,53.6,81.7,62.4,123.2c9.1,43,19.5,91.7,75.9,148.1c0.1,0.1,0.2,0.1,0.2,0.2
		c0.1,0.1,0.1,0.1,0.2,0.2c56.4,56.4,105.1,66.8,148.1,75.9c41.4,8.8,77.1,16.4,123,62.2c45.8,45.9,53.4,81.6,62.2,123
		c9.1,43,19.5,91.7,75.9,148.1c0,0,0.1,0,0.1,0.1c0.1,0.1,0.2,0.2,0.3,0.3c56.4,56.4,105.1,66.8,148.1,75.9
		c4.2,0.9,8.3,1.8,12.4,2.7v-51.2c-0.7-0.1-1.3-0.3-2-0.4C1036.6,2719.5,1000.8,2711.9,954.8,2665.9z" />
					<path class="st0" d="M1026,3004.2C1026,3004.2,1025.9,3004.1,1026,3004.2c-0.1-0.1-0.1-0.1-0.1-0.1c-56.3-56.2-105-66.6-147.9-75.7
		c-41.4-8.8-77.2-16.4-123.2-62.4c-46-46-53.6-81.7-62.4-123.2c-9.1-43-19.5-91.7-75.9-148.1c-0.1-0.1-0.1-0.1-0.2-0.2
		c-0.1-0.1-0.1-0.1-0.2-0.2c-56.4-56.4-105.1-66.8-148.1-75.9c-41.4-8.8-77.1-16.4-122.9-62.2c-45.8-45.9-53.4-81.6-62.2-123
		c-9.1-43-19.5-91.7-75.9-148.1c0,0,0,0-0.1-0.1c-0.1-0.1-0.2-0.2-0.3-0.3c-56.4-56.4-105.1-66.8-148.1-75.9
		c-20.2-4.3-39.1-8.3-58.4-16.6v53.3c16.8,5.6,32.7,9,48,12.2c41.4,8.8,77.2,16.4,123.2,62.4c46,46,53.6,81.7,62.4,123.2
		c9.1,43,19.5,91.7,75.9,148.1c0.1,0.1,0.2,0.1,0.2,0.2c0.1,0.1,0.1,0.1,0.2,0.2c56.4,56.4,105.1,66.8,148.1,75.9
		c41.4,8.8,77.1,16.4,123,62.2c45.8,45.9,53.4,81.6,62.2,123c9.1,43,19.5,91.7,75.9,148.1c0,0,0.1,0,0.1,0.1
		c0.1,0.1,0.2,0.2,0.3,0.3c56.4,56.4,105.1,66.8,148.1,75.9c41.4,8.8,77.1,16.4,123.1,62.3c45.9,45.9,53.5,81.7,62.3,123.1
		c5.4,25.6,11.3,53.2,27.1,83.2v-166.4C1069.2,3055.9,1052.8,3031,1026,3004.2C1026.1,3004.3,1026,3004.2,1026,3004.2z" />
					<path class="st0"
						d="M1002,3252.4c-9.1-43-19.5-91.7-75.9-148.1c0,0-0.1-0.1-0.1-0.1c0,0-0.1-0.1-0.1-0.1c0,0,0,0-0.1-0.1
		c-56.3-56.2-105-66.6-147.9-75.7c-41.4-8.8-77.2-16.4-123.2-62.4c-46-46-53.6-81.7-62.4-123.2c-9.1-43-19.5-91.7-75.9-148.1
		c-0.1-0.1-0.1-0.1-0.2-0.2c-0.1-0.1-0.1-0.1-0.2-0.2c-56.4-56.4-105.1-66.8-148.1-75.9c-41.4-8.8-77.1-16.4-122.9-62.2
		c-45.8-45.9-53.4-81.6-62.2-123c-9.1-43-19.5-91.7-75.9-148.1c0,0,0,0-0.1-0.1c-0.1-0.1-0.2-0.2-0.3-0.3c-39-39-74.3-56-106.5-65.8
		v52.8c22.4,8.6,45.1,22.3,71.1,48.4c46,46,53.6,81.7,62.4,123.2c9.1,43,19.5,91.7,75.9,148.1c0.1,0.1,0.2,0.1,0.2,0.2
		c0.1,0.1,0.1,0.1,0.2,0.2c56.4,56.4,105.1,66.8,148.1,75.9c41.4,8.8,77.1,16.4,123,62.2c45.8,45.9,53.4,81.6,62.2,123
		c9.1,43,19.5,91.7,75.9,148.1c0,0,0.1,0,0.1,0.1c0.1,0.1,0.2,0.2,0.3,0.3c56.4,56.4,105.1,66.8,148.1,75.9
		c41.4,8.8,77.1,16.4,123.1,62.3c45.9,45.9,53.5,81.7,62.3,123.1c9.1,43,19.5,91.7,75.9,148.1c0,0,0.1,0.1,0.1,0.1s0.1,0.1,0.1,0.1
		c0,0,0,0,0.1,0.1c17.7,17.7,34.6,30.8,50.9,40.8V3390c-5.1-4.4-10.3-9.2-15.7-14.5C1018.5,3329.5,1010.9,3293.8,1002,3252.4z" />
					<path class="st0"
						d="M902,3352.4c-9.1-43-19.5-91.7-75.9-148.1c0,0-0.1-0.1-0.1-0.1c0,0-0.1-0.1-0.1-0.1c0,0,0,0-0.1-0.1
		c-56.3-56.2-105-66.6-147.9-75.7c-41.4-8.8-77.2-16.4-123.2-62.4c-46-46-53.6-81.7-62.4-123.2c-9.1-43-19.5-91.7-75.9-148.1
		c-0.1-0.1-0.1-0.1-0.2-0.2c-0.1-0.1-0.1-0.1-0.2-0.2c-56.4-56.4-105.1-66.8-148.1-75.9c-41.4-8.8-77.1-16.4-122.9-62.2
		c-45.8-45.9-53.4-81.6-62.2-123c-9.1-43-19.5-91.7-75.9-148.1c0,0,0,0-0.1-0.1c-0.1-0.1-0.2-0.2-0.3-0.3c-2.2-2.2-4.3-4.3-6.5-6.3
		v75.9c21.2,30.8,27,58.3,33.5,89c9.1,43,19.5,91.7,75.9,148.1c0.1,0.1,0.2,0.1,0.2,0.2c0.1,0.1,0.1,0.1,0.2,0.2
		c56.4,56.4,105.1,66.8,148.1,75.9c41.4,8.8,77.1,16.4,123,62.2c45.8,45.9,53.4,81.6,62.2,123c9.1,43,19.5,91.7,75.9,148.1
		c0,0,0,0,0.1,0.1c0.1,0.1,0.2,0.2,0.3,0.3c56.4,56.4,105.1,66.8,148.1,75.9c41.4,8.8,77.1,16.4,123.1,62.3
		c45.9,45.9,53.5,81.7,62.3,123.1c9.1,43,19.5,91.7,75.9,148.1c0,0,0.1,0.1,0.1,0.1s0.1,0.1,0.1,0.1c0,0,0,0,0.1,0.1
		c56.3,56.2,104.9,66.6,147.8,75.7c1,0.2,2,0.4,3,0.6v-51.1c-38.3-8.3-72.5-17.6-115.7-60.7C918.5,3429.5,910.9,3393.8,902,3352.4z" />
					<path class="st0" d="M864.3,3575.5c-45.9-45.9-53.5-81.7-62.3-123.1c-9.1-43-19.5-91.7-75.9-148.1c0,0-0.1-0.1-0.1-0.1
		c0,0-0.1-0.1-0.1-0.1c0,0,0,0-0.1-0.1c-56.3-56.2-105-66.6-147.9-75.7c-41.4-8.8-77.2-16.4-123.2-62.4c-46-46-53.6-81.7-62.4-123.2
		c-9.1-43-19.5-91.7-75.9-148.1c-0.1-0.1-0.1-0.1-0.2-0.2c-0.1-0.1-0.1-0.1-0.2-0.2c-56.4-56.4-105.1-66.8-148.1-75.9
		c-41.4-8.8-77.1-16.4-122.9-62.2c-23-23-36.3-43.5-45.1-63.4v88.6c3,3.3,6.2,6.6,9.5,9.9c0.1,0.1,0.2,0.1,0.2,0.2
		c0.1,0.1,0.1,0.1,0.2,0.2c56.4,56.4,105.1,66.8,148.1,75.9c41.4,8.8,77.1,16.4,123,62.2c45.8,45.9,53.4,81.6,62.2,123
		c9.1,43,19.5,91.7,75.9,148.1c0,0,0,0,0.1,0.1c0.1,0.1,0.2,0.2,0.3,0.3c56.4,56.4,105.1,66.8,148.1,75.9
		c41.4,8.8,77.1,16.4,123.1,62.3c45.9,45.9,53.5,81.7,62.3,123.1c9.1,43,19.5,91.7,75.9,148.1c0,0,0.1,0.1,0.1,0.1s0.1,0.1,0.1,0.1
		c0,0,0,0,0.1,0.1c56.3,56.2,104.9,66.6,147.8,75.7c35.2,7.5,66.3,14.1,103,44.1V3670c-33.7-19.7-64.4-26.3-92.6-32.3
		C946,3628.9,910.3,3621.3,864.3,3575.5z" />
					<path class="st0" d="M945.5,4723.7c-0.1-0.1-0.1-0.1-0.2-0.2c-0.1-0.1-0.1-0.1-0.2-0.2c-56.4-56.4-105.1-66.8-148.1-75.9
		c-41.4-8.8-77.1-16.4-123-62.2c-45.8-45.9-53.4-81.6-62.2-122.9c-9.1-43-19.5-91.7-75.9-148.1c0,0-0.1-0.1-0.1-0.1
		c-0.1-0.1-0.2-0.2-0.3-0.3c-56.4-56.4-105.1-66.8-148.1-75.9c-41.4-8.8-77.1-16.4-123.1-62.3c-45.9-45.9-53.5-81.7-62.3-123.1
		c-9.1-43-19.5-91.7-75.9-148.1c0,0,0,0-0.1-0.1c0,0-0.1-0.1-0.1-0.1c0,0,0,0-0.1-0.1c-46.9-46.8-88.5-61.8-125.8-70.8v51.6
		c28.9,8.1,57.1,21.1,90.7,54.7c45.9,45.9,53.5,81.7,62.3,123c9.1,43,19.5,91.7,75.9,148.1c0,0,0.1,0.1,0.1,0.1c0,0,0.1,0.1,0.1,0.1
		c0,0,0,0,0.1,0.1c56.3,56.2,104.9,66.6,147.8,75.7c41.4,8.8,77.2,16.4,123.2,62.4c46,46,53.6,81.7,62.4,123.2
		c9.1,43,19.5,91.7,75.9,148.1c0.1,0.1,0.1,0.1,0.2,0.2c0.1,0.1,0.2,0.2,0.2,0.3c56.4,56.4,105.1,66.8,148.1,75.9
		c41.4,8.8,77.1,16.4,123,62.2c45.8,45.9,53.4,81.6,62.2,123c9.1,43,19.5,91.7,75.9,148.1c0,0,0.1,0.1,0.1,0.1
		c0.1,0.1,0.2,0.2,0.3,0.3c10.8,10.8,21.3,19.9,31.5,27.6V4991c-42.6-44.1-50-79-58.6-119.2
		C1012.3,4828.8,1001.9,4780.1,945.5,4723.7z" />
					<path class="st0" d="M873.8,4384.9c-46-46-53.6-81.7-62.4-123.2c-9.1-43-19.5-91.7-75.9-148.1c-56.4-56.4-105.1-66.8-148.1-75.9
		c-41.4-8.8-77.1-16.4-123.1-62.3c-45.9-45.9-53.5-81.7-62.3-123.1c-9.1-43-19.5-91.7-75.9-148.1c0,0-0.1-0.1-0.1-0.1
		c0,0,0,0-0.1-0.1c0,0,0,0,0,0c-56.3-56.2-105-66.6-147.9-75.7c-41.4-8.8-77.2-16.4-123.2-62.4C21.1,3532.2,8.1,3504,0,3475v105.1
		c5.7,6.8,12,13.7,19.1,20.8c0,0,0,0,0.1,0.1c0.1,0.1,0.2,0.2,0.3,0.3c56.4,56.4,105.1,66.8,148.1,75.9
		c41.4,8.8,77.1,16.4,123.1,62.3c45.9,45.9,53.5,81.7,62.3,123.1c9.1,43,19.5,91.7,75.9,148.1c0,0,0.1,0.1,0.1,0.1
		c0,0,0.1,0.1,0.1,0.1c0,0,0,0,0.1,0.1c56.3,56.2,104.9,66.6,147.8,75.7c41.4,8.8,77.2,16.4,123.2,62.4c46,46,53.6,81.7,62.4,123.2
		c9.1,43,19.5,91.7,75.9,148.1c56.4,56.4,105.1,66.8,148.1,75.9c32.1,6.8,60.8,12.9,93.4,36.7v-58.6c-30-15.7-57.5-21.5-83-27
		C955.6,4438.5,919.8,4430.9,873.8,4384.9z" />
					<path class="st0" d="M911.4,4161.8c-9.1-43-19.5-91.7-75.9-148.1c-56.4-56.4-105.1-66.8-148.1-75.9c-41.4-8.8-77.1-16.4-123.1-62.3
		c-45.9-45.9-53.5-81.7-62.3-123.1c-9.1-43-19.5-91.7-75.9-148.1c0,0-0.1-0.1-0.1-0.1c0,0,0,0-0.1-0.1c0,0,0,0,0,0
		c-56.3-56.2-105-66.6-147.9-75.7c-41.4-8.8-77.2-16.4-123.2-62.4c-46-46-53.6-81.7-62.4-123.2c-9.1-43-19.5-91.7-75.9-148.1
		c-0.1-0.1-0.1-0.1-0.2-0.2c-0.1-0.1-0.1-0.1-0.2-0.2c-5.4-5.4-10.8-10.4-16.1-15.1v71.7c29.2,36.2,35.7,67,43.1,101.8
		c9.1,43,19.5,91.7,75.9,148.1c0,0,0,0,0.1,0.1c0.1,0.1,0.2,0.2,0.3,0.3c56.4,56.4,105.1,66.8,148.1,75.9
		c41.4,8.8,77.1,16.4,123.1,62.3c45.9,45.9,53.5,81.7,62.3,123.1c9.1,43,19.5,91.7,75.9,148.1c0,0,0.1,0.1,0.1,0.1
		c0,0,0.1,0.1,0.1,0.1c0,0,0,0,0.1,0.1c56.3,56.2,104.9,66.6,147.8,75.7c41.4,8.8,77.2,16.4,123.2,62.4c46,46,53.6,81.7,62.4,123.2
		c9.1,43,19.5,91.7,75.9,148.1c53.6,53.6,100.2,65.6,141.5,74.5v-51.2c-34.6-8-66.6-19.1-106.2-58.7
		C927.9,4239,920.3,4203.2,911.4,4161.8z" />
					<path class="st0" d="M1011.4,4061.8c-9.1-43-19.5-91.7-75.9-148.1c-56.4-56.4-105.1-66.8-148.1-75.9
		c-41.4-8.8-77.1-16.4-123.1-62.3c-45.9-45.9-53.5-81.7-62.3-123.1c-9.1-43-19.5-91.7-75.9-148.1c0,0-0.1-0.1-0.1-0.1
		c0,0,0,0-0.1-0.1c0,0,0,0,0,0c-56.3-56.2-105-66.6-147.9-75.7c-41.4-8.8-77.2-16.4-123.2-62.4c-46-46-53.6-81.7-62.4-123.2
		c-9.1-43-19.5-91.7-75.9-148.1c-0.1-0.1-0.1-0.1-0.2-0.2c-0.1-0.1-0.1-0.1-0.2-0.2c-42.9-42.9-81.3-59.2-116.1-68.5v52.4
		c25.6,8.3,51.1,21.9,80.9,51.7c45.8,45.9,53.4,81.6,62.2,123c9.1,43,19.5,91.7,75.9,148.1c0,0,0,0,0.1,0.1c0.1,0.1,0.2,0.2,0.3,0.3
		c56.4,56.4,105.1,66.8,148.1,75.9c41.4,8.8,77.1,16.4,123.1,62.3c45.9,45.9,53.5,81.7,62.3,123.1c9.1,43,19.5,91.7,75.9,148.1
		c0,0,0.1,0.1,0.1,0.1c0,0,0.1,0.1,0.1,0.1c0,0,0,0,0.1,0.1c56.3,56.2,104.9,66.6,147.8,75.7c41.4,8.8,77.2,16.4,123.2,62.4
		c46,46,53.6,81.7,62.4,123.2c9.1,43,19.5,91.7,75.9,148.1c14.3,14.3,28.2,25.7,41.5,34.8v-64.2c-2-1.9-4.1-3.9-6.2-6
		C1027.9,4139,1020.3,4103.2,1011.4,4061.8z" />
					<path class="st0"
						d="M897,4547.3c-41.4-8.8-77.2-16.4-123.2-62.4c-46-46-53.6-81.7-62.4-123.2c-9.1-43-19.5-91.7-75.9-148.1
		c-56.4-56.4-105.1-66.8-148.1-75.9c-41.4-8.8-77.1-16.4-123.1-62.3c-45.9-45.9-53.5-81.7-62.3-123.1c-9.1-43-19.5-91.7-75.9-148.1
		c0,0-0.1-0.1-0.1-0.1c0,0,0,0-0.1-0.1c0,0,0,0,0,0c-56.3-56.2-105-66.6-147.9-75.7c-26.9-5.7-51.5-11-78-26.6v55.8
		c24.1,10.4,46.5,15.1,67.6,19.6c41.4,8.8,77.1,16.4,123.1,62.3c45.9,45.9,53.5,81.7,62.3,123.1c9.1,43,19.5,91.7,75.9,148.1
		c0,0,0.1,0.1,0.1,0.1c0,0,0.1,0.1,0.1,0.1c0,0,0,0,0.1,0.1c56.3,56.2,104.9,66.6,147.8,75.7c41.4,8.8,77.2,16.4,123.2,62.4
		c46,46,53.6,81.7,62.4,123.2c9.1,43,19.5,91.7,75.9,148.1c56.4,56.4,105.1,66.8,148.1,75.9c41.4,8.8,77.2,16.4,123.2,62.4
		c46,46,53.6,81.7,62.4,123.2c2.3,10.8,4.7,22,7.9,33.6v-150.4c-9.1-13.4-20.5-27.3-34.9-41.7C988.7,4566.8,940,4556.5,897,4547.3z" />
					<path class="st0" d="M921.4,4971.8c-9.1-43-19.5-91.7-75.9-148.1c-0.1-0.1-0.1-0.1-0.2-0.2c-0.1-0.1-0.1-0.1-0.2-0.2
		c-56.4-56.4-105.1-66.8-148.1-75.9c-41.4-8.8-77.1-16.4-123-62.2c-45.8-45.9-53.4-81.6-62.2-122.9c-9.1-43-19.5-91.7-75.9-148.1
		c0,0-0.1-0.1-0.1-0.1c-0.1-0.1-0.2-0.2-0.3-0.3c-56.4-56.4-105.1-66.8-148.1-75.9c-41.4-8.8-77.1-16.4-123.1-62.3
		c-45.9-45.9-53.5-81.7-62.3-123.1c-9.1-43-19.5-91.7-75.9-148.1c0,0,0,0-0.1-0.1c0,0-0.1-0.1-0.1-0.1c0,0,0,0-0.1-0.1
		c-8.8-8.8-17.4-16.4-25.8-23.2v68.5c37.6,41.3,44.8,74.9,52.9,113.3c9.1,43,19.5,91.7,75.9,148.1c0,0,0.1,0.1,0.1,0.1
		c0,0,0.1,0.1,0.1,0.1c0,0,0,0,0.1,0.1c56.3,56.2,104.9,66.6,147.8,75.7c41.4,8.8,77.2,16.4,123.2,62.4c46,46,53.6,81.7,62.4,123.2
		c9.1,43,19.5,91.7,75.9,148.1c0.1,0.1,0.1,0.1,0.2,0.2c0.1,0.1,0.2,0.2,0.2,0.3c56.4,56.4,105.1,66.8,148.1,75.9
		c41.4,8.8,77.1,16.4,123,62.2c45.8,45.9,53.4,81.6,62.2,123c9.1,43,19.5,91.7,75.9,148.1c0,0,0.1,0.1,0.1,0.1
		c0.1,0.1,0.2,0.2,0.3,0.3c49.3,49.3,92.7,63.4,131.5,72.3v-51.4c-30.9-8-60.4-20.5-96.2-56.2C937.9,5049,930.3,5013.2,921.4,4971.8
		z" />
					<path class="st0" d="M883.8,5194.9c-46-46-53.6-81.7-62.4-123.2c-9.1-43-19.5-91.7-75.9-148.1c-0.1-0.1-0.1-0.1-0.2-0.2
		c-0.1-0.1-0.1-0.1-0.2-0.2c-56.4-56.4-105.1-66.8-148.1-75.9c-41.4-8.8-77.1-16.4-123-62.2c-45.8-45.9-53.4-81.6-62.2-123
		c-9.1-43-19.5-91.7-75.9-148.1c0,0-0.1-0.1-0.1-0.1c-0.1-0.1-0.2-0.2-0.3-0.3c-56.4-56.4-105.1-66.8-148.1-75.9
		c-41.4-8.8-77.1-16.4-123.1-62.3c-45.9-45.9-53.5-81.7-62.3-123.1c-0.7-3.2-1.3-6.3-2-9.5v134.7c8,10.8,17.5,21.8,28.9,33.2
		c0,0,0.1,0.1,0.1,0.1c0,0,0.1,0.1,0.1,0.1c0,0,0,0,0.1,0.1c56.3,56.2,104.9,66.6,147.8,75.7c41.4,8.8,77.2,16.4,123.2,62.4
		c46,46,53.6,81.7,62.4,123.2c9.1,43,19.5,91.7,75.9,148.1c0.1,0.1,0.1,0.1,0.2,0.2c0.1,0.1,0.1,0.1,0.2,0.2
		c56.4,56.4,105.1,66.8,148.1,75.9c41.4,8.8,77.1,16.4,123,62.2c45.8,45.9,53.4,81.6,62.2,123c9.1,43,19.5,91.7,75.9,148.1
		c0,0,0.1,0.1,0.1,0.1c0.1,0.1,0.2,0.2,0.3,0.3c56.4,56.4,105.1,66.8,148.1,75.9c28.8,6.1,54.8,11.7,83.4,29.9v-56.7
		c-26.1-12.1-50.4-17.2-73-22C965.6,5248.5,929.8,5240.9,883.8,5194.9z" />
					<path class="st0" d="M907,5357.3c-41.4-8.8-77.2-16.4-123.2-62.4c-46-46-53.6-81.7-62.4-123.2c-9.1-43-19.5-91.7-75.9-148.1
		c-0.1-0.1-0.1-0.1-0.2-0.2c-0.1-0.1-0.1-0.1-0.2-0.2c-56.4-56.4-105.1-66.8-148.1-75.9c-41.4-8.8-77.1-16.4-123-62.2
		c-45.8-45.9-53.4-81.6-62.2-123c-9.1-43-19.5-91.7-75.9-148.1c0,0-0.1-0.1-0.1-0.1c-0.1-0.1-0.2-0.2-0.3-0.3
		c-56.4-56.4-105.1-66.8-148.1-75.9c-30.1-6.4-57.2-12.2-87.4-32.5v57.5c27.6,13.4,53.2,18.9,77,23.9c41.4,8.8,77.2,16.4,123.2,62.4
		c46,46,53.6,81.7,62.4,123.2c9.1,43,19.5,91.7,75.9,148.1c0.1,0.1,0.1,0.1,0.2,0.2c0.1,0.1,0.1,0.1,0.2,0.2
		c56.4,56.4,105.1,66.8,148.1,75.9c41.4,8.8,77.1,16.4,123,62.2c45.8,45.9,53.4,81.6,62.2,123c9.1,43,19.5,91.7,75.9,148.1
		c0,0,0.1,0.1,0.1,0.1c0.1,0.1,0.2,0.2,0.3,0.3c56.4,56.4,105.1,66.8,148.1,75.9c41.4,8.8,77.2,16.4,123.2,62.4
		c42.2,42.2,52.1,75.9,60.2,113.2v-120.6c-7.1-9.1-15.3-18.4-24.9-28C998.7,5376.8,950,5366.5,907,5357.3z" />
					<path class="st0" d="M955.1,5533.3c-56.4-56.4-105.1-66.8-148.1-75.9c-41.4-8.8-77.2-16.4-123.2-62.4c-46-46-53.6-81.7-62.4-123.2
		c-9.1-43-19.5-91.7-75.9-148.1c-0.1-0.1-0.1-0.1-0.2-0.2c-0.1-0.1-0.1-0.1-0.2-0.2c-56.4-56.4-105.1-66.8-148.1-75.9
		c-41.4-8.8-77.1-16.4-123-62.2c-45.8-45.9-53.4-81.6-62.2-123c-9.1-43-19.5-91.7-75.9-148.1c0,0-0.1-0.1-0.1-0.1
		c-0.1-0.1-0.2-0.2-0.3-0.3c-51-51-95.7-64.4-135.5-73.2v51.3c32.3,7.9,62.9,20,100.1,57.2c46,46,53.6,81.7,62.4,123.2
		c9.1,43,19.5,91.7,75.9,148.1c0.1,0.1,0.1,0.1,0.2,0.2c0.1,0.1,0.1,0.1,0.2,0.2c56.4,56.4,105.1,66.8,148.1,75.9
		c41.4,8.8,77.1,16.4,123,62.2c45.8,45.9,53.4,81.6,62.2,123c9.1,43,19.5,91.7,75.9,148.1c0,0,0.1,0.1,0.1,0.1
		c0.1,0.1,0.2,0.2,0.3,0.3c56.4,56.4,105.1,66.8,148.1,75.9c41.4,8.8,77.2,16.4,123.2,62.4c46,46,53.6,81.7,62.4,123.2
		c9.1,43,19.5,91.7,75.9,148.1c4.9,4.9,11.3,7.3,17.7,7.3c1.4,0,2.8-0.1,4.2-0.4v-56.7c-34.1-39.3-41.1-71.8-49-108.8
		C1021.9,5638.4,1011.5,5589.7,955.1,5533.3z" />
					<path class="st0" d="M931.4,5781.8c-9.1-43-19.5-91.7-75.9-148.1c-0.1-0.1-0.1-0.1-0.2-0.2c-0.1-0.1-0.1-0.1-0.2-0.2
		c-56.4-56.4-105.1-66.8-148.1-75.9c-41.4-8.8-77.1-16.4-123-62.2c-45.8-45.9-53.4-81.6-62.2-122.9c-9.1-43-19.5-91.7-75.9-148.1
		c0,0-0.1-0.1-0.1-0.1c-0.1-0.1-0.2-0.2-0.3-0.3c-0.1-0.1-0.1-0.1-0.2-0.2c-0.1-0.1-0.1-0.1-0.2-0.2
		c-56.4-56.4-105.1-66.8-148.1-75.9c-41.4-8.8-77.1-16.4-123-62.2c-45.8-45.9-53.4-81.6-62.2-123c-9.1-43-19.5-91.7-75.9-148.1
		c0,0-0.1-0.1-0.1-0.1c-0.1-0.1-0.2-0.2-0.3-0.3c-12.2-12.2-24-22.2-35.5-30.6v65.8c0.1,0,0.1,0.1,0.1,0.1
		c46,46,53.6,81.7,62.4,123.2c9.1,43,19.5,91.7,75.9,148.1c0.1,0.1,0.1,0.1,0.2,0.2c0.1,0.1,0.1,0.1,0.2,0.2
		c56.4,56.4,105.1,66.8,148.1,75.9c41.4,8.8,77.1,16.4,123,62.2c45.8,45.9,53.4,81.6,62.2,123c9.1,43,19.5,91.7,75.9,148.1
		c0,0,0.1,0.1,0.1,0.1c0.1,0.1,0.2,0.2,0.3,0.3c0.1,0.1,0.1,0.1,0.2,0.2c0.1,0.1,0.2,0.2,0.2,0.3c56.4,56.4,105.1,66.8,148.1,75.9
		c41.4,8.8,77.1,16.4,123,62.2c45.8,45.9,53.4,81.6,62.2,123c9.1,43,19.5,91.7,75.9,148.1c0,0,0.1,0.1,0.1,0.1
		c0.1,0.1,0.2,0.2,0.3,0.3c45.1,45.1,85.3,60.8,121.5,69.9v-51.8c-27.3-8.2-54.3-21.6-86.2-53.5
		C947.9,5859,940.3,5823.2,931.4,5781.8z" />
					<path class="st0" d="M887.4,3737.7c-41.4-8.8-77.1-16.4-123.1-62.3c-45.9-45.9-53.5-81.7-62.3-123.1c-9.1-43-19.5-91.7-75.9-148.1
		c0,0-0.1-0.1-0.1-0.1c0,0-0.1-0.1-0.1-0.1c0,0,0,0-0.1-0.1c-56.3-56.2-105-66.6-147.9-75.7c-41.4-8.8-77.2-16.4-123.2-62.4
		c-46-46-53.6-81.7-62.4-123.2c-9.1-43-19.5-91.7-75.9-148.1c-0.1-0.1-0.1-0.1-0.2-0.2c-0.1-0.1-0.1-0.1-0.2-0.2
		c-56.4-56.4-105.1-66.8-148.1-75.9c-23.5-5-45.2-9.6-68-21.1v54.7c20.5,7.8,39.7,11.9,58,15.7c41.4,8.8,77.1,16.4,123,62.2
		c45.8,45.9,53.4,81.6,62.2,123c9.1,43,19.5,91.7,75.9,148.1c0,0,0,0,0.1,0.1c0.1,0.1,0.2,0.2,0.3,0.3
		c56.4,56.4,105.1,66.8,148.1,75.9c41.4,8.8,77.1,16.4,123.1,62.3c45.9,45.9,53.5,81.7,62.3,123.1c9.1,43,19.5,91.7,75.9,148.1
		c0,0,0.1,0.1,0.1,0.1s0.1,0.1,0.1,0.1c0,0,0,0,0.1,0.1c56.3,56.2,104.9,66.6,147.8,75.7c41.4,8.8,77.2,16.4,123.2,62.4
		c46,46,53.6,81.7,62.4,123.2c4.2,19.6,8.6,40.3,17.5,62.4v-164c-10.4-18.1-24.6-37-44.5-56.9
		C979.1,3757.2,930.4,3746.9,887.4,3737.7z" />
					<path class="st0" d="M917,6167.3c-41.4-8.8-77.2-16.4-123.2-62.4c-46-46-53.6-81.7-62.4-123.2c-9.1-43-19.5-91.7-75.9-148.1
		c-0.1-0.1-0.1-0.1-0.2-0.2c-0.1-0.1-0.1-0.1-0.2-0.2c-56.4-56.4-105.1-66.8-148.1-75.9c-41.4-8.8-77.1-16.4-123-62.2
		c-45.8-45.9-53.4-81.6-62.2-123c-9.1-43-19.5-91.7-75.9-148.1c0,0-0.1-0.1-0.1-0.1c-0.1-0.1-0.2-0.2-0.3-0.3
		c-56.4-56.4-105.1-66.8-148.1-75.9c-33.4-7.1-63.1-13.4-97.4-39.7v59.5c31.5,17.3,60.4,23.4,87,29.1c41.4,8.8,77.2,16.4,123.2,62.4
		c46,46,53.6,81.7,62.4,123.2c9.1,43,19.5,91.7,75.9,148.1c0.1,0.1,0.1,0.1,0.2,0.2c0.1,0.1,0.1,0.1,0.2,0.2
		c56.4,56.4,105.1,66.8,148.1,75.9c41.4,8.8,77.1,16.4,123,62.2c45.8,45.9,53.4,81.6,62.2,123c9.1,43,19.5,91.7,75.9,148.1
		c0,0,0.1,0.1,0.1,0.1c0.1,0.1,0.2,0.2,0.3,0.3c56.4,56.4,105.1,66.8,148.1,75.9c41.4,8.8,77.2,16.4,123.2,62.4
		c28,28,41.8,52.2,50.2,76.3v-95.7c-4.6-5.2-9.5-10.5-14.9-15.9C1008.7,6186.8,960,6176.5,917,6167.3z" />
					<path class="st0"
						d="M965.5,6343.7c-0.1-0.1-0.1-0.1-0.2-0.2c-0.1-0.1-0.1-0.1-0.2-0.2c-56.4-56.4-105.1-66.8-148.1-75.9
		c-41.4-8.8-77.1-16.4-123-62.2c-45.8-45.9-53.4-81.6-62.2-122.9c-9.1-43-19.5-91.7-75.9-148.1c0,0,0,0-0.1-0.1
		c-0.1-0.1-0.2-0.2-0.3-0.3c-0.1-0.1-0.1-0.1-0.2-0.2c-0.1-0.1-0.1-0.1-0.2-0.2c-56.4-56.4-105.1-66.8-148.1-75.9
		c-41.4-8.8-77.1-16.4-123-62.2c-45.8-45.9-53.4-81.6-62.2-123c-9.1-43-19.5-91.7-75.9-148.1c0,0-0.1-0.1-0.1-0.1
		c-0.1-0.1-0.2-0.2-0.3-0.3c-55.3-55.3-103.2-66.4-145.5-75.4v51.2c36.1,8,69.1,18.5,110.1,59.6c46,46,53.6,81.7,62.4,123.2
		c9.1,43,19.5,91.7,75.9,148.1c0.1,0.1,0.1,0.1,0.2,0.2c0.1,0.1,0.1,0.1,0.2,0.2c56.4,56.4,105.1,66.8,148.1,75.9
		c41.4,8.8,77.1,16.4,123,62.2c45.8,45.9,53.4,81.6,62.2,123c9.1,43,19.5,91.7,75.9,148.1c0,0,0.1,0.1,0.1,0.1
		c0.1,0.1,0.2,0.2,0.3,0.3c0.1,0.1,0.1,0.1,0.2,0.2c0.1,0.1,0.2,0.2,0.2,0.3c56.4,56.4,105.1,66.8,148.1,75.9
		c41.4,8.8,77.1,16.4,123,62.2c45.8,45.9,53.4,81.6,62.2,123c9.1,43,19.5,91.7,75.9,148.1c0,0,0.1,0.1,0.1,0.1
		c0.1,0.1,0.2,0.2,0.3,0.3c3.9,3.9,7.7,7.5,11.5,11v-73.6c-25.3-33.7-31.6-63-38.6-95.9C1032.3,6448.8,1021.9,6400.1,965.5,6343.7z" />
					<path class="st0" d="M893.8,6004.9c-46-46-53.6-81.7-62.4-123.2c-9.1-43-19.5-91.7-75.9-148.1c-0.1-0.1-0.1-0.1-0.2-0.2
		c-0.1-0.1-0.1-0.1-0.2-0.2c-56.4-56.4-105.1-66.8-148.1-75.9c-41.4-8.8-77.1-16.4-123-62.2c-45.8-45.9-53.4-81.6-62.2-123
		c-9.1-43-19.5-91.7-75.9-148.1c0,0-0.1-0.1-0.1-0.1c-0.1-0.1-0.2-0.2-0.3-0.3c-56.4-56.4-105.1-66.8-148.1-75.9
		c-41.4-8.8-77.2-16.4-123.2-62.4c-46-46-53.6-81.7-62.4-123.2c-3.2-14.9-6.5-30.5-11.9-46.9V5173c9.8,15.3,22.3,31.1,38.9,47.7
		c56.4,56.4,105.1,66.8,148.1,75.9c41.4,8.8,77.2,16.4,123.2,62.4c46,46,53.6,81.7,62.4,123.2c9.1,43,19.5,91.7,75.9,148.1
		c0.1,0.1,0.1,0.1,0.2,0.2c0.1,0.1,0.1,0.1,0.2,0.2c56.4,56.4,105.1,66.8,148.1,75.9c41.4,8.8,77.1,16.4,123,62.2
		c45.8,45.9,53.4,81.6,62.2,123c9.1,43,19.5,91.7,75.9,148.1c0,0,0.1,0.1,0.1,0.1c0.1,0.1,0.2,0.2,0.3,0.3
		c56.4,56.4,105.1,66.8,148.1,75.9c25.4,5.4,48.6,10.4,73.4,24V6085c-22.3-9.1-43.3-13.5-63-17.7
		C975.6,6058.5,939.8,6050.9,893.8,6004.9z" />
					<path class="st0" d="M927,6977.3c-41.4-8.8-77.2-16.4-123.2-62.4c-46-46-53.6-81.7-62.4-123.2c-9.1-43-19.5-91.7-75.9-148.1
		c-0.1-0.1-0.1-0.1-0.2-0.2c-0.1-0.1-0.1-0.1-0.2-0.2c-56.4-56.4-105.1-66.8-148.1-75.9c-41.4-8.8-77.1-16.4-123-62.2
		c-45.8-45.9-53.4-81.6-62.2-123c-9.1-43-19.5-91.7-75.9-148.1c0,0-0.1-0.1-0.1-0.1c-0.1-0.1-0.2-0.2-0.3-0.3
		c-0.1-0.1-0.1-0.1-0.2-0.2c-0.1-0.1-0.1-0.1-0.2-0.2c-56.4-56.4-105.1-66.8-148.1-75.9c-36.4-7.8-68.5-14.6-107-47.4v61.8
		c35.4,21.8,67.6,28.6,97,34.9c41.4,8.8,77.1,16.4,123,62.2c45.8,45.9,53.4,81.6,62.2,123c9.1,43,19.5,91.7,75.9,148.1
		c0,0,0,0,0.1,0.1c0.1,0.1,0.2,0.2,0.3,0.3c0.1,0.1,0.1,0.1,0.2,0.2c0.1,0.1,0.1,0.1,0.2,0.2c56.4,56.4,105.1,66.8,148.1,75.9
		c41.4,8.8,77.1,16.4,123,62.2c45.8,45.9,53.4,81.6,62.2,123c9.1,43,19.5,91.7,75.9,148.1c0,0,0.1,0.1,0.1,0.1
		c0.1,0.1,0.2,0.2,0.3,0.3c56.4,56.4,105.1,66.8,148.1,75.9c41.4,8.8,77.2,16.4,123.2,62.4c19.1,19.1,31.6,36.4,40.2,53.1v-83.5
		c-1.6-1.7-3.2-3.3-4.9-5C1018.7,6996.8,970,6986.5,927,6977.3z" />
					<path class="st0" d="M903.8,6814.9c-46-46-53.6-81.7-62.4-123.2c-9.1-43-19.5-91.7-75.9-148.1c-0.1-0.1-0.1-0.1-0.2-0.2
		c-0.1-0.1-0.1-0.1-0.2-0.2c-56.4-56.4-105.1-66.8-148.1-75.9c-41.4-8.8-77.1-16.4-123-62.2c-45.8-45.9-53.4-81.6-62.2-123
		c-9.1-43-19.5-91.7-75.9-148.1c0,0-0.1-0.1-0.1-0.1c-0.1-0.1-0.2-0.2-0.3-0.3c-0.1-0.1-0.1-0.1-0.2-0.2c-0.1-0.1-0.1-0.1-0.2-0.2
		c-56.4-56.4-105.1-66.8-148.1-75.9c-41.4-8.8-77.1-16.4-123-62.2c-45.8-45.9-53.4-81.6-62.2-123c-4.8-22.5-9.9-46.6-21.9-72.6
		v166.6c10.7,20.2,25.9,41.6,48.5,64.1c0.1,0.1,0.1,0.1,0.2,0.2c0.1,0.1,0.1,0.1,0.2,0.2c56.4,56.4,105.1,66.8,148.1,75.9
		c41.4,8.8,77.1,16.4,123,62.2c45.8,45.9,53.4,81.6,62.2,123c9.1,43,19.5,91.7,75.9,148.1c0,0,0,0,0.1,0.1c0.1,0.1,0.2,0.2,0.3,0.3
		c0.1,0.1,0.1,0.1,0.2,0.2c0.1,0.1,0.1,0.1,0.2,0.2c56.4,56.4,105.1,66.8,148.1,75.9c41.4,8.8,77.1,16.4,123,62.2
		c45.8,45.9,53.4,81.6,62.2,123c9.1,43,19.5,91.7,75.9,148.1c0,0,0.1,0.1,0.1,0.1c0.1,0.1,0.2,0.2,0.3,0.3
		c56.4,56.4,105.1,66.8,148.1,75.9c21.9,4.7,42.3,9,63.4,18.9v-53.9c-18.6-6.6-36.2-10.3-53-13.9
		C985.6,6868.5,949.8,6860.9,903.8,6814.9z" />
					<path class="st0"
						d="M941.4,6591.8c-9.1-43-19.5-91.7-75.9-148.1c-0.1-0.1-0.1-0.1-0.2-0.2c-0.1-0.1-0.1-0.1-0.2-0.2
		c-56.4-56.4-105.1-66.8-148.1-75.9c-41.4-8.8-77.1-16.4-123-62.2c-45.8-45.9-53.4-81.6-62.2-122.9c-9.1-43-19.5-91.7-75.9-148.1
		c0,0-0.1-0.1-0.1-0.1c-0.1-0.1-0.2-0.2-0.3-0.3c-0.1-0.1-0.1-0.1-0.2-0.2c-0.1-0.1-0.1-0.1-0.2-0.2
		c-56.4-56.4-105.1-66.8-148.1-75.9c-41.4-8.8-77.1-16.4-123-62.2c-45.8-45.9-53.4-81.6-62.2-123c-9.1-43-19.5-91.7-75.9-148.1
		c0,0-0.1-0.1-0.1-0.1c-0.1-0.1-0.2-0.2-0.3-0.3c-15.8-15.8-30.9-27.9-45.5-37.5v63.2c3.3,3,6.7,6.2,10.1,9.7
		c46,46,53.6,81.7,62.4,123.2c9.1,43,19.5,91.7,75.9,148.1c0.1,0.1,0.1,0.1,0.2,0.2c0.1,0.1,0.1,0.1,0.2,0.2
		c56.4,56.4,105.1,66.8,148.1,75.9c41.4,8.8,77.1,16.4,123,62.2c45.8,45.9,53.4,81.6,62.2,123c9.1,43,19.5,91.7,75.9,148.1
		c0,0,0.1,0.1,0.1,0.1c0.1,0.1,0.2,0.2,0.3,0.3c0.1,0.1,0.1,0.1,0.2,0.2c0.1,0.1,0.2,0.2,0.2,0.3c56.4,56.4,105.1,66.8,148.1,75.9
		c41.4,8.8,77.1,16.4,123,62.2c45.8,45.9,53.4,81.6,62.2,123c9.1,43,19.5,91.7,75.9,148.1c0,0,0.1,0.1,0.1,0.1
		c0.1,0.1,0.2,0.2,0.3,0.3c41,41,77.9,57.7,111.5,67.2v-52.4c-24-8.5-48.2-22.2-76.2-50.2C957.9,6669,950.3,6633.2,941.4,6591.8z" />
					<path class="st0" d="M475.3,7653.5c-0.1-0.1-0.1-0.1-0.2-0.2c-56.4-56.4-105.1-66.8-148.1-75.9c-41.4-8.8-77.1-16.4-123-62.2
		c-45.8-45.9-53.4-81.6-62.2-123c-9.1-43-19.5-91.7-75.9-148.1c0,0-0.1-0.1-0.1-0.1c-0.1-0.1-0.2-0.2-0.3-0.3
		c-23.1-23.1-44.9-38.5-65.5-49.2v58.6c9.6,7,19.6,15.5,30.1,26c46,46,53.6,81.7,62.4,123.2c9.1,43,19.5,91.7,75.9,148.1
		c0.1,0.1,0.1,0.1,0.2,0.2c0.1,0.1,0.1,0.1,0.2,0.2c56.4,56.4,105.1,66.8,148.1,75.9c38.5,8.2,72.2,15.4,113.7,53.4h68.4
		c-6.8-8.6-14.6-17.4-23.6-26.3C475.4,7653.6,475.4,7653.6,475.3,7653.5z" />
					<path class="st0" d="M675.5,7453.7c-0.1-0.1-0.1-0.1-0.2-0.2c-0.1-0.1-0.1-0.1-0.2-0.2c-56.4-56.4-105.1-66.8-148.1-75.9
		c-41.4-8.8-77.1-16.4-123-62.2c-45.8-45.9-53.4-81.6-62.2-123c-9.1-43-19.5-91.7-75.9-148.1c0,0-0.1-0.1-0.1-0.1
		c-0.1-0.1-0.2-0.2-0.3-0.3c-0.1-0.1-0.1-0.1-0.2-0.2c-0.1-0.1-0.1-0.1-0.2-0.2c-56.4-56.4-105.1-66.8-148.1-75.9
		c-39.5-8.4-74-15.8-117-56.4v64.3c39.4,27,74.8,34.6,107,41.4c41.4,8.8,77.1,16.4,123,62.2c45.8,45.9,53.4,81.6,62.2,123
		c9.1,43,19.5,91.7,75.9,148.1c0,0,0,0,0.1,0.1c0.1,0.1,0.2,0.2,0.3,0.3c0.1,0.1,0.1,0.1,0.2,0.2c0.1,0.1,0.1,0.1,0.2,0.2
		c56.4,56.4,105.1,66.8,148.1,75.9c41.4,8.8,77.1,16.4,123,62.2c45.8,45.9,53.4,81.6,62.2,123c4.5,21.3,9.3,43.9,19.9,68.2h56.1
		c-15.7-26.6-20.9-51.2-26.7-78.2C742.3,7558.8,731.9,7510.1,675.5,7453.7z" />
					<path class="st0" d="M851.4,7501.8c-9.1-43-19.5-91.7-75.9-148.1c-0.1-0.1-0.1-0.1-0.2-0.2c-0.1-0.1-0.1-0.1-0.2-0.2
		c-56.4-56.4-105.1-66.8-148.1-75.9c-41.4-8.8-77.1-16.4-123-62.2c-45.8-45.9-53.4-81.6-62.2-123c-9.1-43-19.5-91.7-75.9-148.1
		c0,0-0.1-0.1-0.1-0.1c-0.1-0.1-0.2-0.2-0.3-0.3c-0.1-0.1-0.1-0.1-0.2-0.2c-0.1-0.1-0.1-0.1-0.2-0.2
		c-56.4-56.4-105.1-66.8-148.1-75.9c-41.4-8.8-77.1-16.4-123-62.2c-45.8-45.9-53.4-81.6-62.2-123c-6-28-12.4-58.4-31.9-91.9v164.3
		c10.6,26.5,27.7,55,58.5,85.7c0.1,0.1,0.1,0.1,0.2,0.2c0.1,0.1,0.1,0.1,0.2,0.2c56.4,56.4,105.1,66.8,148.1,75.9
		c41.4,8.8,77.1,16.4,123,62.2c45.8,45.9,53.4,81.6,62.2,123c9.1,43,19.5,91.7,75.9,148.1c0,0,0,0,0.1,0.1c0.1,0.1,0.2,0.2,0.3,0.3
		c0.1,0.1,0.1,0.1,0.2,0.2c0.1,0.1,0.1,0.1,0.2,0.2c56.4,56.4,105.1,66.8,148.1,75.9c41.4,8.8,77.1,16.4,123,62.2
		c45.8,45.9,53.4,81.6,62.2,123c9.1,43,19.5,91.7,75.9,148.1c0,0,0.1,0.1,0.1,0.1c0.1,0.1,0.2,0.2,0.3,0.3
		c7.3,7.3,14.5,13.8,21.5,19.7h105.5c-29.3-8-57.7-21-91.7-55.1C867.9,7579,860.3,7543.2,851.4,7501.8z" />
					<path class="st0"
						d="M951.4,7401.8c-9.1-43-19.5-91.7-75.9-148.1c-0.1-0.1-0.1-0.1-0.2-0.2c-0.1-0.1-0.1-0.1-0.2-0.2
		c-56.4-56.4-105.1-66.8-148.1-75.9c-41.4-8.8-77.1-16.4-123-62.2c-45.8-45.9-53.4-81.6-62.2-122.9c-9.1-43-19.5-91.7-75.9-148.1
		c0,0-0.1-0.1-0.1-0.1c-0.1-0.1-0.2-0.2-0.3-0.3c-0.1-0.1-0.1-0.1-0.2-0.2c-0.1-0.1-0.1-0.1-0.2-0.2
		c-56.4-56.4-105.1-66.8-148.1-75.9c-41.4-8.8-77.1-16.4-123-62.2c-45.8-45.9-53.4-81.6-62.2-123c-9.1-43-19.5-91.7-75.9-148.1
		c0,0-0.1-0.1-0.1-0.1c-0.1-0.1-0.2-0.2-0.3-0.3c-19.4-19.4-37.9-33.3-55.5-43.7v60.7c6.5,5.3,13.2,11.4,20.1,18.3
		c46,46,53.6,81.7,62.4,123.2c9.1,43,19.5,91.7,75.9,148.1c0.1,0.1,0.1,0.1,0.2,0.2c0.1,0.1,0.1,0.1,0.2,0.2
		c56.4,56.4,105.1,66.8,148.1,75.9c41.4,8.8,77.1,16.4,123,62.2c45.8,45.9,53.4,81.6,62.2,123c9.1,43,19.5,91.7,75.9,148.1
		c0,0,0.1,0.1,0.1,0.1c0.1,0.1,0.2,0.2,0.3,0.3c0.1,0.1,0.1,0.1,0.2,0.2c0.1,0.1,0.2,0.2,0.2,0.3c56.4,56.4,105.1,66.8,148.1,75.9
		c41.4,8.8,77.1,16.4,123,62.2c45.8,45.9,53.4,81.6,62.2,123c9.1,43,19.5,91.7,75.9,148.1c0,0,0.1,0.1,0.1,0.1
		c0.1,0.1,0.2,0.2,0.3,0.3c37,37,70.6,54.2,101.5,64.2v-53.2c-20.8-8.7-42.1-22.3-66.2-46.4C967.9,7479,960.3,7443.2,951.4,7401.8z" />
					<path class="st0"
						d="M975.5,7153.7c-0.1-0.1-0.1-0.1-0.2-0.2c-0.1-0.1-0.1-0.1-0.2-0.2c-56.4-56.4-105.1-66.8-148.1-75.9
		c-41.4-8.8-77.1-16.4-123-62.2c-45.8-45.9-53.4-81.6-62.2-122.9c-9.1-43-19.5-91.7-75.9-148.1c0,0-0.1-0.1-0.1-0.1
		c-0.1-0.1-0.2-0.2-0.3-0.3c-0.1-0.1-0.1-0.1-0.2-0.2c-0.1-0.1-0.1-0.1-0.2-0.2c-56.4-56.4-105.1-66.8-148.1-75.9
		c-41.4-8.8-77.1-16.4-123-62.2c-45.8-45.9-53.4-81.6-62.2-123c-9.1-43-19.5-91.7-75.9-148.1c0,0-0.1-0.1-0.1-0.1
		c-0.1-0.1-0.2-0.2-0.3-0.3c-0.1-0.1-0.1-0.1-0.2-0.2c-0.1-0.1-0.1-0.1-0.2-0.2C98.7,6276.8,50,6266.5,7,6257.3
		c-2.3-0.5-4.7-1-7-1.5v51.4c40.1,8.6,75.2,16.9,119.9,61.6c45.8,45.9,53.4,81.6,62.2,123c9.1,43,19.5,91.7,75.9,148.1
		c0,0,0,0,0.1,0.1c0.1,0.1,0.2,0.2,0.3,0.3c0.1,0.1,0.1,0.1,0.2,0.2c0.1,0.1,0.1,0.1,0.2,0.2c56.4,56.4,105.1,66.8,148.1,75.9
		c41.4,8.8,77.1,16.4,123,62.2c45.8,45.9,53.4,81.6,62.2,123c9.1,43,19.5,91.7,75.9,148.1c0,0,0.1,0.1,0.1,0.1
		c0.1,0.1,0.2,0.2,0.3,0.3c0.1,0.1,0.1,0.1,0.2,0.2c0.1,0.1,0.2,0.2,0.2,0.3c56.4,56.4,105.1,66.8,148.1,75.9
		c41.4,8.8,77.1,16.4,123,62.2c45.8,45.9,53.4,81.6,62.2,123c9.1,43,19.5,91.7,75.9,148.1c0,0,0.1,0.1,0.1,0.1
		c0.1,0.1,0.2,0.2,0.3,0.3c0.5,0.5,1,1,1.5,1.5v-78.7c-17.2-27.8-22.6-53.3-28.6-81.3C1042.3,7258.8,1031.9,7210.1,975.5,7153.7z" />
					<path class="st0" d="M575.3,7553.5c-0.1-0.1-0.1-0.1-0.2-0.2c-56.4-56.4-105.1-66.8-148.1-75.9c-41.4-8.8-77.1-16.4-123-62.2
		c-45.8-45.9-53.4-81.6-62.2-123c-9.1-43-19.5-91.7-75.9-148.1c0,0-0.1-0.1-0.1-0.1c-0.1-0.1-0.2-0.2-0.3-0.3
		c-56.4-56.4-105.1-66.8-148.1-75.9c-5.9-1.3-11.7-2.5-17.4-3.8v51.2c2.3,0.5,4.7,1,7,1.5c41.4,8.8,77.2,16.4,123.2,62.4
		c46,46,53.6,81.7,62.4,123.2c9.1,43,19.5,91.7,75.9,148.1c0.1,0.1,0.1,0.1,0.2,0.2c0.1,0.1,0.1,0.1,0.2,0.2
		c56.4,56.4,105.1,66.8,148.1,75.9c41.4,8.8,77.1,16.4,123,62.2c33.7,33.8,46.7,62.1,54.8,91.2h51.9c-9-37.5-24-79.2-71.1-126.3
		C575.4,7553.6,575.4,7553.6,575.3,7553.5z" />
					<path class="st0" d="M104,7615.1c-45.8-45.9-53.4-81.6-62.2-123c-6.9-32.3-14.5-67.9-41.9-107.6v149.8c9.4,34.8,25.7,73.2,68.5,116
		c0.1,0.1,0.1,0.1,0.2,0.2c0.1,0.1,0.1,0.1,0.2,0.2c11.6,11.6,22.8,21.2,33.8,29.3h136.7c-4.2-0.9-8.3-1.8-12.3-2.7
		C185.6,7668.5,149.9,7660.9,104,7615.1z" />
				</g>
			</svg>